<svg class="rich-terminal" viewBox="0 0 1482 977.1999999999999" xmlns="http://www.w3.org/2000/svg">
    <!-- Generated with Rich https://www.textualize.io -->
    <style>

    .terminal-1820297094-matrix {
        font-family: "Noto Sans SC", "Microsoft YaHei", sans-serif;
        font-size: 20px;
        line-height: 24.4px;
        font-variant-east-asian: full-width;
    }

    .terminal-1820297094-title {
        font-size: 18px;
        font-weight: bold;
        font-family: arial;
    }

    .terminal-1820297094-r1 { fill: #c5c8c6 }
.terminal-1820297094-r2 { fill: #79e6b3;font-weight: bold }
.terminal-1820297094-r3 { fill: #f2c14e }
.terminal-1820297094-r4 { fill: #b5c3c9 }
.terminal-1820297094-r5 { fill: #f2f7f5;font-weight: bold }
.terminal-1820297094-r6 { fill: #2a4b5f }
.terminal-1820297094-r7 { fill: #38cfe0 }
.terminal-1820297094-r8 { fill: #8798a1 }
.terminal-1820297094-r9 { fill: #38cfe0;font-weight: bold }
.terminal-1820297094-r10 { fill: #f2f7f5 }
.terminal-1820297094-r11 { fill: #79e6b3 }
.terminal-1820297094-r12 { fill: #f1c14e }
    </style>

    <defs>
    <clipPath id="terminal-1820297094-clip-terminal">
      <rect x="0" y="0" width="1463.0" height="926.1999999999999" />
    </clipPath>
    <clipPath id="terminal-1820297094-line-0">
    <rect x="0" y="1.5" width="1464" height="24.65"/>
            </clipPath>
<clipPath id="terminal-1820297094-line-1">
    <rect x="0" y="25.9" width="1464" height="24.65"/>
            </clipPath>
<clipPath id="terminal-1820297094-line-2">
    <rect x="0" y="50.3" width="1464" height="24.65"/>
            </clipPath>
<clipPath id="terminal-1820297094-line-3">
    <rect x="0" y="74.7" width="1464" height="24.65"/>
            </clipPath>
<clipPath id="terminal-1820297094-line-4">
    <rect x="0" y="99.1" width="1464" height="24.65"/>
            </clipPath>
<clipPath id="terminal-1820297094-line-5">
    <rect x="0" y="123.5" width="1464" height="24.65"/>
            </clipPath>
<clipPath id="terminal-1820297094-line-6">
    <rect x="0" y="147.9" width="1464" height="24.65"/>
            </clipPath>
<clipPath id="terminal-1820297094-line-7">
    <rect x="0" y="172.3" width="1464" height="24.65"/>
            </clipPath>
<clipPath id="terminal-1820297094-line-8">
    <rect x="0" y="196.7" width="1464" height="24.65"/>
            </clipPath>
<clipPath id="terminal-1820297094-line-9">
    <rect x="0" y="221.1" width="1464" height="24.65"/>
            </clipPath>
<clipPath id="terminal-1820297094-line-10">
    <rect x="0" y="245.5" width="1464" height="24.65"/>
            </clipPath>
<clipPath id="terminal-1820297094-line-11">
    <rect x="0" y="269.9" width="1464" height="24.65"/>
            </clipPath>
<clipPath id="terminal-1820297094-line-12">
    <rect x="0" y="294.3" width="1464" height="24.65"/>
            </clipPath>
<clipPath id="terminal-1820297094-line-13">
    <rect x="0" y="318.7" width="1464" height="24.65"/>
            </clipPath>
<clipPath id="terminal-1820297094-line-14">
    <rect x="0" y="343.1" width="1464" height="24.65"/>
            </clipPath>
<clipPath id="terminal-1820297094-line-15">
    <rect x="0" y="367.5" width="1464" height="24.65"/>
            </clipPath>
<clipPath id="terminal-1820297094-line-16">
    <rect x="0" y="391.9" width="1464" height="24.65"/>
            </clipPath>
<clipPath id="terminal-1820297094-line-17">
    <rect x="0" y="416.3" width="1464" height="24.65"/>
            </clipPath>
<clipPath id="terminal-1820297094-line-18">
    <rect x="0" y="440.7" width="1464" height="24.65"/>
            </clipPath>
<clipPath id="terminal-1820297094-line-19">
    <rect x="0" y="465.1" width="1464" height="24.65"/>
            </clipPath>
<clipPath id="terminal-1820297094-line-20">
    <rect x="0" y="489.5" width="1464" height="24.65"/>
            </clipPath>
<clipPath id="terminal-1820297094-line-21">
    <rect x="0" y="513.9" width="1464" height="24.65"/>
            </clipPath>
<clipPath id="terminal-1820297094-line-22">
    <rect x="0" y="538.3" width="1464" height="24.65"/>
            </clipPath>
<clipPath id="terminal-1820297094-line-23">
    <rect x="0" y="562.7" width="1464" height="24.65"/>
            </clipPath>
<clipPath id="terminal-1820297094-line-24">
    <rect x="0" y="587.1" width="1464" height="24.65"/>
            </clipPath>
<clipPath id="terminal-1820297094-line-25">
    <rect x="0" y="611.5" width="1464" height="24.65"/>
            </clipPath>
<clipPath id="terminal-1820297094-line-26">
    <rect x="0" y="635.9" width="1464" height="24.65"/>
            </clipPath>
<clipPath id="terminal-1820297094-line-27">
    <rect x="0" y="660.3" width="1464" height="24.65"/>
            </clipPath>
<clipPath id="terminal-1820297094-line-28">
    <rect x="0" y="684.7" width="1464" height="24.65"/>
            </clipPath>
<clipPath id="terminal-1820297094-line-29">
    <rect x="0" y="709.1" width="1464" height="24.65"/>
            </clipPath>
<clipPath id="terminal-1820297094-line-30">
    <rect x="0" y="733.5" width="1464" height="24.65"/>
            </clipPath>
<clipPath id="terminal-1820297094-line-31">
    <rect x="0" y="757.9" width="1464" height="24.65"/>
            </clipPath>
<clipPath id="terminal-1820297094-line-32">
    <rect x="0" y="782.3" width="1464" height="24.65"/>
            </clipPath>
<clipPath id="terminal-1820297094-line-33">
    <rect x="0" y="806.7" width="1464" height="24.65"/>
            </clipPath>
<clipPath id="terminal-1820297094-line-34">
    <rect x="0" y="831.1" width="1464" height="24.65"/>
            </clipPath>
<clipPath id="terminal-1820297094-line-35">
    <rect x="0" y="855.5" width="1464" height="24.65"/>
            </clipPath>
<clipPath id="terminal-1820297094-line-36">
    <rect x="0" y="879.9" width="1464" height="24.65"/>
            </clipPath>
    </defs>

    <rect fill="#292929" stroke="rgba(255,255,255,0.35)" stroke-width="1" x="1" y="1" width="1480" height="975.2" rx="8"/><text class="terminal-1820297094-title" fill="#c5c8c6" text-anchor="middle" x="740" y="27">Rook&#160;TUI&#160;·&#160;permission</text>
            <g transform="translate(26,22)">
            <circle cx="0" cy="0" r="7" fill="#ff5f57"/>
            <circle cx="22" cy="0" r="7" fill="#febc2e"/>
            <circle cx="44" cy="0" r="7" fill="#28c840"/>
            </g>

    <g transform="translate(9, 41)" clip-path="url(#terminal-1820297094-clip-terminal)">
    <rect fill="#101b26" x="0" y="1.5" width="24.4" height="24.65" shape-rendering="crispEdges"/><rect fill="#101b26" x="24.4" y="1.5" width="36.6" height="24.65" shape-rendering="crispEdges"/><rect fill="#101b26" x="61" y="1.5" width="12.2" height="24.65" shape-rendering="crispEdges"/><rect fill="#101b26" x="73.2" y="1.5" width="12.2" height="24.65" shape-rendering="crispEdges"/><rect fill="#101b26" x="85.4" y="1.5" width="48.8" height="24.65" shape-rendering="crispEdges"/><rect fill="#101b26" x="134.2" y="1.5" width="951.6" height="24.65" shape-rendering="crispEdges"/><rect fill="#101b26" x="1085.8" y="1.5" width="73.2" height="24.65" shape-rendering="crispEdges"/><rect fill="#101b26" x="1159" y="1.5" width="12.2" height="24.65" shape-rendering="crispEdges"/><rect fill="#101b26" x="1171.2" y="1.5" width="12.2" height="24.65" shape-rendering="crispEdges"/><rect fill="#101b26" x="1183.4" y="1.5" width="12.2" height="24.65" shape-rendering="crispEdges"/><rect fill="#101b26" x="1195.6" y="1.5" width="207.4" height="24.65" shape-rendering="crispEdges"/><rect fill="#101b26" x="1403" y="1.5" width="36.6" height="24.65" shape-rendering="crispEdges"/><rect fill="#101b26" x="1439.6" y="1.5" width="24.4" height="24.65" shape-rendering="crispEdges"/><rect fill="#101b26" x="0" y="25.9" width="1464" height="24.65" shape-rendering="crispEdges"/><rect fill="#081018" x="0" y="50.3" width="1390.8" height="24.65" shape-rendering="crispEdges"/><rect fill="#081018" x="1390.8" y="50.3" width="73.2" height="24.65" shape-rendering="crispEdges"/><rect fill="#081018" x="0" y="74.7" width="36.6" height="24.65" shape-rendering="crispEdges"/><rect fill="#101b26" x="36.6" y="74.7" width="12.2" height="24.65" shape-rendering="crispEdges"/><rect fill="#101b26" x="48.8" y="74.7" width="12.2" height="24.65" shape-rendering="crispEdges"/><rect fill="#101b26" x="61" y="74.7" width="24.4" height="24.65" shape-rendering="crispEdges"/><rect fill="#101b26" x="85.4" y="74.7" width="36.6" height="24.65" shape-rendering="crispEdges"/><rect fill="#101b26" x="122" y="74.7" width="1220" height="24.65" shape-rendering="crispEdges"/><rect fill="#101b26" x="1342" y="74.7" width="12.2" height="24.65" shape-rendering="crispEdges"/><rect fill="#081018" x="1354.2" y="74.7" width="36.6" height="24.65" shape-rendering="crispEdges"/><rect fill="#081018" x="1390.8" y="74.7" width="73.2" height="24.65" shape-rendering="crispEdges"/><rect fill="#081018" x="0" y="99.1" width="36.6" height="24.65" shape-rendering="crispEdges"/><rect fill="#101b26" x="36.6" y="99.1" width="12.2" height="24.65" shape-rendering="crispEdges"/><rect fill="#101b26" x="48.8" y="99.1" width="12.2" height="24.65" shape-rendering="crispEdges"/><rect fill="#101b26" x="61" y="99.1" width="12.2" height="24.65" shape-rendering="crispEdges"/><rect fill="#101b26" x="73.2" y="99.1" width="427" height="24.65" shape-rendering="crispEdges"/><rect fill="#101b26" x="500.2" y="99.1" width="841.8" height="24.65" shape-rendering="crispEdges"/><rect fill="#101b26" x="1342" y="99.1" width="12.2" height="24.65" shape-rendering="crispEdges"/><rect fill="#081018" x="1354.2" y="99.1" width="36.6" height="24.65" shape-rendering="crispEdges"/><rect fill="#081018" x="1390.8" y="99.1" width="73.2" height="24.65" shape-rendering="crispEdges"/><rect fill="#081018" x="0" y="123.5" width="36.6" height="24.65" shape-rendering="crispEdges"/><rect fill="#081018" x="36.6" y="123.5" width="1317.6" height="24.65" shape-rendering="crispEdges"/><rect fill="#081018" x="1354.2" y="123.5" width="36.6" height="24.65" shape-rendering="crispEdges"/><rect fill="#081018" x="1390.8" y="123.5" width="73.2" height="24.65" shape-rendering="crispEdges"/><rect fill="#081018" x="0" y="147.9" width="36.6" height="24.65" shape-rendering="crispEdges"/><rect fill="#101b26" x="36.6" y="147.9" width="12.2" height="24.65" shape-rendering="crispEdges"/><rect fill="#101b26" x="48.8" y="147.9" width="12.2" height="24.65" shape-rendering="crispEdges"/><rect fill="#101b26" x="61" y="147.9" width="207.4" height="24.65" shape-rendering="crispEdges"/><rect fill="#101b26" x="268.4" y="147.9" width="1073.6" height="24.65" shape-rendering="crispEdges"/><rect fill="#101b26" x="1342" y="147.9" width="12.2" height="24.65" shape-rendering="crispEdges"/><rect fill="#081018" x="1354.2" y="147.9" width="36.6" height="24.65" shape-rendering="crispEdges"/><rect fill="#081018" x="1390.8" y="147.9" width="73.2" height="24.65" shape-rendering="crispEdges"/><rect fill="#081018" x="0" y="172.3" width="36.6" height="24.65" shape-rendering="crispEdges"/><rect fill="#101b26" x="36.6" y="172.3" width="12.2" height="24.65" shape-rendering="crispEdges"/><rect fill="#101b26" x="48.8" y="172.3" width="12.2" height="24.65" shape-rendering="crispEdges"/><rect fill="#101b26" x="61" y="172.3" width="793" height="24.65" shape-rendering="crispEdges"/><rect fill="#101b26" x="854" y="172.3" width="488" height="24.65" shape-rendering="crispEdges"/><rect fill="#101b26" x="1342" y="172.3" width="12.2" height="24.65" shape-rendering="crispEdges"/><rect fill="#081018" x="1354.2" y="172.3" width="36.6" height="24.65" shape-rendering="crispEdges"/><rect fill="#081018" x="1390.8" y="172.3" width="73.2" height="24.65" shape-rendering="crispEdges"/><rect fill="#081018" x="0" y="196.7" width="36.6" height="24.65" shape-rendering="crispEdges"/><rect fill="#081018" x="36.6" y="196.7" width="1317.6" height="24.65" shape-rendering="crispEdges"/><rect fill="#081018" x="1354.2" y="196.7" width="36.6" height="24.65" shape-rendering="crispEdges"/><rect fill="#081018" x="1390.8" y="196.7" width="73.2" height="24.65" shape-rendering="crispEdges"/><rect fill="#081018" x="0" y="221.1" width="36.6" height="24.65" shape-rendering="crispEdges"/><rect fill="#101b26" x="36.6" y="221.1" width="12.2" height="24.65" shape-rendering="crispEdges"/><rect fill="#101b26" x="48.8" y="221.1" width="12.2" height="24.65" shape-rendering="crispEdges"/><rect fill="#101b26" x="61" y="221.1" width="24.4" height="24.65" shape-rendering="crispEdges"/><rect fill="#101b26" x="85.4" y="221.1" width="48.8" height="24.65" shape-rendering="crispEdges"/><rect fill="#101b26" x="134.2" y="221.1" width="1207.8" height="24.65" shape-rendering="crispEdges"/><rect fill="#101b26" x="1342" y="221.1" width="12.2" height="24.65" shape-rendering="crispEdges"/><rect fill="#081018" x="1354.2" y="221.1" width="36.6" height="24.65" shape-rendering="crispEdges"/><rect fill="#081018" x="1390.8" y="221.1" width="73.2" height="24.65" shape-rendering="crispEdges"/><rect fill="#081018" x="0" y="245.5" width="36.6" height="24.65" shape-rendering="crispEdges"/><rect fill="#101b26" x="36.6" y="245.5" width="12.2" height="24.65" shape-rendering="crispEdges"/><rect fill="#101b26" x="48.8" y="245.5" width="12.2" height="24.65" shape-rendering="crispEdges"/><rect fill="#101b26" x="61" y="245.5" width="854" height="24.65" shape-rendering="crispEdges"/><rect fill="#101b26" x="915" y="245.5" width="427" height="24.65" shape-rendering="crispEdges"/><rect fill="#101b26" x="1342" y="245.5" width="12.2" height="24.65" shape-rendering="crispEdges"/><rect fill="#081018" x="1354.2" y="245.5" width="36.6" height="24.65" shape-rendering="crispEdges"/><rect fill="#081018" x="1390.8" y="245.5" width="73.2" height="24.65" shape-rendering="crispEdges"/><rect fill="#081018" x="0" y="269.9" width="36.6" height="24.65" shape-rendering="crispEdges"/><rect fill="#081018" x="36.6" y="269.9" width="1317.6" height="24.65" shape-rendering="crispEdges"/><rect fill="#081018" x="1354.2" y="269.9" width="36.6" height="24.65" shape-rendering="crispEdges"/><rect fill="#081018" x="1390.8" y="269.9" width="73.2" height="24.65" shape-rendering="crispEdges"/><rect fill="#081018" x="0" y="294.3" width="36.6" height="24.65" shape-rendering="crispEdges"/><rect fill="#101b26" x="36.6" y="294.3" width="12.2" height="24.65" shape-rendering="crispEdges"/><rect fill="#101b26" x="48.8" y="294.3" width="12.2" height="24.65" shape-rendering="crispEdges"/><rect fill="#101b26" x="61" y="294.3" width="244" height="24.65" shape-rendering="crispEdges"/><rect fill="#101b26" x="305" y="294.3" width="1037" height="24.65" shape-rendering="crispEdges"/><rect fill="#101b26" x="1342" y="294.3" width="12.2" height="24.65" shape-rendering="crispEdges"/><rect fill="#081018" x="1354.2" y="294.3" width="36.6" height="24.65" shape-rendering="crispEdges"/><rect fill="#081018" x="1390.8" y="294.3" width="73.2" height="24.65" shape-rendering="crispEdges"/><rect fill="#081018" x="0" y="318.7" width="36.6" height="24.65" shape-rendering="crispEdges"/><rect fill="#101b26" x="36.6" y="318.7" width="12.2" height="24.65" shape-rendering="crispEdges"/><rect fill="#101b26" x="48.8" y="318.7" width="12.2" height="24.65" shape-rendering="crispEdges"/><rect fill="#101b26" x="61" y="318.7" width="353.8" height="24.65" shape-rendering="crispEdges"/><rect fill="#101b26" x="414.8" y="318.7" width="927.2" height="24.65" shape-rendering="crispEdges"/><rect fill="#101b26" x="1342" y="318.7" width="12.2" height="24.65" shape-rendering="crispEdges"/><rect fill="#081018" x="1354.2" y="318.7" width="36.6" height="24.65" shape-rendering="crispEdges"/><rect fill="#081018" x="1390.8" y="318.7" width="73.2" height="24.65" shape-rendering="crispEdges"/><rect fill="#081018" x="0" y="343.1" width="36.6" height="24.65" shape-rendering="crispEdges"/><rect fill="#101b26" x="36.6" y="343.1" width="12.2" height="24.65" shape-rendering="crispEdges"/><rect fill="#101b26" x="48.8" y="343.1" width="12.2" height="24.65" shape-rendering="crispEdges"/><rect fill="#101b26" x="61" y="343.1" width="671" height="24.65" shape-rendering="crispEdges"/><rect fill="#101b26" x="732" y="343.1" width="610" height="24.65" shape-rendering="crispEdges"/><rect fill="#101b26" x="1342" y="343.1" width="12.2" height="24.65" shape-rendering="crispEdges"/><rect fill="#081018" x="1354.2" y="343.1" width="36.6" height="24.65" shape-rendering="crispEdges"/><rect fill="#081018" x="1390.8" y="343.1" width="73.2" height="24.65" shape-rendering="crispEdges"/><rect fill="#081018" x="0" y="367.5" width="36.6" height="24.65" shape-rendering="crispEdges"/><rect fill="#101b26" x="36.6" y="367.5" width="12.2" height="24.65" shape-rendering="crispEdges"/><rect fill="#101b26" x="48.8" y="367.5" width="12.2" height="24.65" shape-rendering="crispEdges"/><rect fill="#101b26" x="61" y="367.5" width="488" height="24.65" shape-rendering="crispEdges"/><rect fill="#101b26" x="549" y="367.5" width="793" height="24.65" shape-rendering="crispEdges"/><rect fill="#101b26" x="1342" y="367.5" width="12.2" height="24.65" shape-rendering="crispEdges"/><rect fill="#081018" x="1354.2" y="367.5" width="36.6" height="24.65" shape-rendering="crispEdges"/><rect fill="#081018" x="1390.8" y="367.5" width="73.2" height="24.65" shape-rendering="crispEdges"/><rect fill="#081018" x="0" y="391.9" width="36.6" height="24.65" shape-rendering="crispEdges"/><rect fill="#101b26" x="36.6" y="391.9" width="12.2" height="24.65" shape-rendering="crispEdges"/><rect fill="#101b26" x="48.8" y="391.9" width="12.2" height="24.65" shape-rendering="crispEdges"/><rect fill="#101b26" x="61" y="391.9" width="512.4" height="24.65" shape-rendering="crispEdges"/><rect fill="#101b26" x="573.4" y="391.9" width="768.6" height="24.65" shape-rendering="crispEdges"/><rect fill="#101b26" x="1342" y="391.9" width="12.2" height="24.65" shape-rendering="crispEdges"/><rect fill="#081018" x="1354.2" y="391.9" width="36.6" height="24.65" shape-rendering="crispEdges"/><rect fill="#081018" x="1390.8" y="391.9" width="73.2" height="24.65" shape-rendering="crispEdges"/><rect fill="#081018" x="0" y="416.3" width="36.6" height="24.65" shape-rendering="crispEdges"/><rect fill="#081018" x="36.6" y="416.3" width="1317.6" height="24.65" shape-rendering="crispEdges"/><rect fill="#081018" x="1354.2" y="416.3" width="36.6" height="24.65" shape-rendering="crispEdges"/><rect fill="#081018" x="1390.8" y="416.3" width="73.2" height="24.65" shape-rendering="crispEdges"/><rect fill="#081018" x="0" y="440.7" width="36.6" height="24.65" shape-rendering="crispEdges"/><rect fill="#081018" x="36.6" y="440.7" width="1317.6" height="24.65" shape-rendering="crispEdges"/><rect fill="#081018" x="1354.2" y="440.7" width="36.6" height="24.65" shape-rendering="crispEdges"/><rect fill="#081018" x="1390.8" y="440.7" width="73.2" height="24.65" shape-rendering="crispEdges"/><rect fill="#081018" x="0" y="465.1" width="36.6" height="24.65" shape-rendering="crispEdges"/><rect fill="#081018" x="36.6" y="465.1" width="1317.6" height="24.65" shape-rendering="crispEdges"/><rect fill="#081018" x="1354.2" y="465.1" width="36.6" height="24.65" shape-rendering="crispEdges"/><rect fill="#081018" x="1390.8" y="465.1" width="73.2" height="24.65" shape-rendering="crispEdges"/><rect fill="#081018" x="0" y="489.5" width="36.6" height="24.65" shape-rendering="crispEdges"/><rect fill="#081018" x="36.6" y="489.5" width="1317.6" height="24.65" shape-rendering="crispEdges"/><rect fill="#081018" x="1354.2" y="489.5" width="36.6" height="24.65" shape-rendering="crispEdges"/><rect fill="#081018" x="1390.8" y="489.5" width="73.2" height="24.65" shape-rendering="crispEdges"/><rect fill="#081018" x="0" y="513.9" width="36.6" height="24.65" shape-rendering="crispEdges"/><rect fill="#081018" x="36.6" y="513.9" width="1317.6" height="24.65" shape-rendering="crispEdges"/><rect fill="#081018" x="1354.2" y="513.9" width="36.6" height="24.65" shape-rendering="crispEdges"/><rect fill="#081018" x="1390.8" y="513.9" width="73.2" height="24.65" shape-rendering="crispEdges"/><rect fill="#081018" x="0" y="538.3" width="36.6" height="24.65" shape-rendering="crispEdges"/><rect fill="#081018" x="36.6" y="538.3" width="1317.6" height="24.65" shape-rendering="crispEdges"/><rect fill="#081018" x="1354.2" y="538.3" width="36.6" height="24.65" shape-rendering="crispEdges"/><rect fill="#081018" x="1390.8" y="538.3" width="73.2" height="24.65" shape-rendering="crispEdges"/><rect fill="#081018" x="0" y="562.7" width="36.6" height="24.65" shape-rendering="crispEdges"/><rect fill="#081018" x="36.6" y="562.7" width="1317.6" height="24.65" shape-rendering="crispEdges"/><rect fill="#081018" x="1354.2" y="562.7" width="36.6" height="24.65" shape-rendering="crispEdges"/><rect fill="#081018" x="1390.8" y="562.7" width="73.2" height="24.65" shape-rendering="crispEdges"/><rect fill="#081018" x="0" y="587.1" width="36.6" height="24.65" shape-rendering="crispEdges"/><rect fill="#081018" x="36.6" y="587.1" width="1317.6" height="24.65" shape-rendering="crispEdges"/><rect fill="#081018" x="1354.2" y="587.1" width="36.6" height="24.65" shape-rendering="crispEdges"/><rect fill="#081018" x="1390.8" y="587.1" width="73.2" height="24.65" shape-rendering="crispEdges"/><rect fill="#081018" x="0" y="611.5" width="36.6" height="24.65" shape-rendering="crispEdges"/><rect fill="#081018" x="36.6" y="611.5" width="1317.6" height="24.65" shape-rendering="crispEdges"/><rect fill="#081018" x="1354.2" y="611.5" width="36.6" height="24.65" shape-rendering="crispEdges"/><rect fill="#081018" x="1390.8" y="611.5" width="73.2" height="24.65" shape-rendering="crispEdges"/><rect fill="#081018" x="0" y="635.9" width="36.6" height="24.65" shape-rendering="crispEdges"/><rect fill="#081018" x="36.6" y="635.9" width="1317.6" height="24.65" shape-rendering="crispEdges"/><rect fill="#081018" x="1354.2" y="635.9" width="36.6" height="24.65" shape-rendering="crispEdges"/><rect fill="#081018" x="1390.8" y="635.9" width="73.2" height="24.65" shape-rendering="crispEdges"/><rect fill="#081018" x="0" y="660.3" width="36.6" height="24.65" shape-rendering="crispEdges"/><rect fill="#081018" x="36.6" y="660.3" width="1317.6" height="24.65" shape-rendering="crispEdges"/><rect fill="#081018" x="1354.2" y="660.3" width="36.6" height="24.65" shape-rendering="crispEdges"/><rect fill="#081018" x="1390.8" y="660.3" width="73.2" height="24.65" shape-rendering="crispEdges"/><rect fill="#081018" x="0" y="684.7" width="36.6" height="24.65" shape-rendering="crispEdges"/><rect fill="#081018" x="36.6" y="684.7" width="1317.6" height="24.65" shape-rendering="crispEdges"/><rect fill="#081018" x="1354.2" y="684.7" width="36.6" height="24.65" shape-rendering="crispEdges"/><rect fill="#081018" x="1390.8" y="684.7" width="73.2" height="24.65" shape-rendering="crispEdges"/><rect fill="#081018" x="0" y="709.1" width="1390.8" height="24.65" shape-rendering="crispEdges"/><rect fill="#081018" x="1390.8" y="709.1" width="73.2" height="24.65" shape-rendering="crispEdges"/><rect fill="#081018" x="0" y="733.5" width="36.6" height="24.65" shape-rendering="crispEdges"/><rect fill="#081018" x="36.6" y="733.5" width="1390.8" height="24.65" shape-rendering="crispEdges"/><rect fill="#081018" x="1427.4" y="733.5" width="36.6" height="24.65" shape-rendering="crispEdges"/><rect fill="#081018" x="0" y="757.9" width="24.4" height="24.65" shape-rendering="crispEdges"/><rect fill="#101b26" x="24.4" y="757.9" width="12.2" height="24.65" shape-rendering="crispEdges"/><rect fill="#101b26" x="36.6" y="757.9" width="1390.8" height="24.65" shape-rendering="crispEdges"/><rect fill="#101b26" x="1427.4" y="757.9" width="12.2" height="24.65" shape-rendering="crispEdges"/><rect fill="#081018" x="1439.6" y="757.9" width="24.4" height="24.65" shape-rendering="crispEdges"/><rect fill="#081018" x="0" y="782.3" width="24.4" height="24.65" shape-rendering="crispEdges"/><rect fill="#101b26" x="24.4" y="782.3" width="12.2" height="24.65" shape-rendering="crispEdges"/><rect fill="#101b26" x="36.6" y="782.3" width="12.2" height="24.65" shape-rendering="crispEdges"/><rect fill="#101b26" x="48.8" y="782.3" width="12.2" height="24.65" shape-rendering="crispEdges"/><rect fill="#101b26" x="61" y="782.3" width="463.6" height="24.65" shape-rendering="crispEdges"/><rect fill="#101b26" x="524.6" y="782.3" width="878.4" height="24.65" shape-rendering="crispEdges"/><rect fill="#101b26" x="1403" y="782.3" width="12.2" height="24.65" shape-rendering="crispEdges"/><rect fill="#101b26" x="1415.2" y="782.3" width="12.2" height="24.65" shape-rendering="crispEdges"/><rect fill="#101b26" x="1427.4" y="782.3" width="12.2" height="24.65" shape-rendering="crispEdges"/><rect fill="#081018" x="1439.6" y="782.3" width="24.4" height="24.65" shape-rendering="crispEdges"/><rect fill="#081018" x="0" y="806.7" width="24.4" height="24.65" shape-rendering="crispEdges"/><rect fill="#101b26" x="24.4" y="806.7" width="12.2" height="24.65" shape-rendering="crispEdges"/><rect fill="#101b26" x="36.6" y="806.7" width="12.2" height="24.65" shape-rendering="crispEdges"/><rect fill="#101b26" x="48.8" y="806.7" width="12.2" height="24.65" shape-rendering="crispEdges"/><rect fill="#101b26" x="61" y="806.7" width="1342" height="24.65" shape-rendering="crispEdges"/><rect fill="#101b26" x="1403" y="806.7" width="12.2" height="24.65" shape-rendering="crispEdges"/><rect fill="#101b26" x="1415.2" y="806.7" width="12.2" height="24.65" shape-rendering="crispEdges"/><rect fill="#101b26" x="1427.4" y="806.7" width="12.2" height="24.65" shape-rendering="crispEdges"/><rect fill="#081018" x="1439.6" y="806.7" width="24.4" height="24.65" shape-rendering="crispEdges"/><rect fill="#081018" x="0" y="831.1" width="24.4" height="24.65" shape-rendering="crispEdges"/><rect fill="#101b26" x="24.4" y="831.1" width="12.2" height="24.65" shape-rendering="crispEdges"/><rect fill="#101b26" x="36.6" y="831.1" width="12.2" height="24.65" shape-rendering="crispEdges"/><rect fill="#101b26" x="48.8" y="831.1" width="12.2" height="24.65" shape-rendering="crispEdges"/><rect fill="#101b26" x="61" y="831.1" width="1342" height="24.65" shape-rendering="crispEdges"/><rect fill="#101b26" x="1403" y="831.1" width="12.2" height="24.65" shape-rendering="crispEdges"/><rect fill="#101b26" x="1415.2" y="831.1" width="12.2" height="24.65" shape-rendering="crispEdges"/><rect fill="#101b26" x="1427.4" y="831.1" width="12.2" height="24.65" shape-rendering="crispEdges"/><rect fill="#081018" x="1439.6" y="831.1" width="24.4" height="24.65" shape-rendering="crispEdges"/><rect fill="#081018" x="0" y="855.5" width="24.4" height="24.65" shape-rendering="crispEdges"/><rect fill="#101b26" x="24.4" y="855.5" width="12.2" height="24.65" shape-rendering="crispEdges"/><rect fill="#101b26" x="36.6" y="855.5" width="1390.8" height="24.65" shape-rendering="crispEdges"/><rect fill="#101b26" x="1427.4" y="855.5" width="12.2" height="24.65" shape-rendering="crispEdges"/><rect fill="#081018" x="1439.6" y="855.5" width="24.4" height="24.65" shape-rendering="crispEdges"/><rect fill="#081018" x="0" y="879.9" width="1464" height="24.65" shape-rendering="crispEdges"/><rect fill="#081018" x="0" y="904.3" width="36.6" height="24.65" shape-rendering="crispEdges"/><rect fill="#081018" x="36.6" y="904.3" width="1317.6" height="24.65" shape-rendering="crispEdges"/><rect fill="#081018" x="1354.2" y="904.3" width="73.2" height="24.65" shape-rendering="crispEdges"/><rect fill="#081018" x="1427.4" y="904.3" width="36.6" height="24.65" shape-rendering="crispEdges"/>
    <g class="terminal-1820297094-matrix">
    <text class="terminal-1820297094-r2" x="24.4" y="20" textLength="36.6" clip-path="url(#terminal-1820297094-line-0)">(&#x27;)</text><text class="terminal-1820297094-r3" x="61" y="20" textLength="12.2" clip-path="url(#terminal-1820297094-line-0)">&gt;</text><text class="terminal-1820297094-r5" x="85.4" y="20" textLength="48.8" clip-path="url(#terminal-1820297094-line-0)">ROOK</text><text class="terminal-1820297094-r4" x="1085.8" y="20" textLength="73.2" clip-path="url(#terminal-1820297094-line-0)">@&#160;Rook</text><text class="terminal-1820297094-r6" x="1171.2" y="20" textLength="12.2" clip-path="url(#terminal-1820297094-line-0)">·</text><text class="terminal-1820297094-r7" x="1195.6" y="20" textLength="207.4" clip-path="url(#terminal-1820297094-line-0)">OpenAI-compatible</text><text class="terminal-1820297094-r8" x="1403" y="20" textLength="36.6" clip-path="url(#terminal-1820297094-line-0)">/g…</text><text class="terminal-1820297094-r1" x="1464" y="20" textLength="12.2" clip-path="url(#terminal-1820297094-line-0)">
</text><text class="terminal-1820297094-r6" x="0" y="44.4" textLength="1464" clip-path="url(#terminal-1820297094-line-1)">────────────────────────────────────────────────────────────────────────────────────────────────────────────────────────</text><text class="terminal-1820297094-r1" x="1464" y="44.4" textLength="12.2" clip-path="url(#terminal-1820297094-line-1)">
</text><text class="terminal-1820297094-r1" x="1464" y="68.8" textLength="12.2" clip-path="url(#terminal-1820297094-line-2)">
</text><text class="terminal-1820297094-r7" x="36.6" y="93.2" textLength="12.2" clip-path="url(#terminal-1820297094-line-3)">│</text><text class="terminal-1820297094-r9" x="61" y="93.2" textLength="24.4" clip-path="url(#terminal-1820297094-line-3)">▌&#160;</text><text class="terminal-1820297094-r9" x="85.4" y="93.2" textLength="36.6" clip-path="url(#terminal-1820297094-line-3)">YOU</text><text class="terminal-1820297094-r1" x="1464" y="93.2" textLength="12.2" clip-path="url(#terminal-1820297094-line-3)">
</text><text class="terminal-1820297094-r7" x="36.6" y="117.6" textLength="12.2" clip-path="url(#terminal-1820297094-line-4)">│</text><text class="terminal-1820297094-r9" x="61" y="117.6" textLength="12.2" clip-path="url(#terminal-1820297094-line-4)">&gt;</text><text class="terminal-1820297094-r10" x="73.2" y="117.6" textLength="219.6" clip-path="url(#terminal-1820297094-line-4)">&#160;运行相关测试，确认修复没有引入回归</text><text class="terminal-1820297094-r1" x="1464" y="117.6" textLength="12.2" clip-path="url(#terminal-1820297094-line-4)">
</text><text class="terminal-1820297094-r1" x="1464" y="142" textLength="12.2" clip-path="url(#terminal-1820297094-line-5)">
</text><text class="terminal-1820297094-r6" x="36.6" y="166.4" textLength="12.2" clip-path="url(#terminal-1820297094-line-6)">│</text><text class="terminal-1820297094-r4" x="61" y="166.4" textLength="207.4" clip-path="url(#terminal-1820297094-line-6)">•&#160;TOOL&#160;·&#160;activity</text><text class="terminal-1820297094-r1" x="1464" y="166.4" textLength="12.2" clip-path="url(#terminal-1820297094-line-6)">
</text><text class="terminal-1820297094-r6" x="36.6" y="190.8" textLength="12.2" clip-path="url(#terminal-1820297094-line-7)">│</text><text class="terminal-1820297094-r4" x="61" y="190.8" textLength="793" clip-path="url(#terminal-1820297094-line-7)">&#160;&#160;read_file&#160;&#160;done&#160;&#160;pyproject.toml&#160;·&#160;tests/test_release_service.py</text><text class="terminal-1820297094-r1" x="1464" y="190.8" textLength="12.2" clip-path="url(#terminal-1820297094-line-7)">
</text><text class="terminal-1820297094-r1" x="1464" y="215.2" textLength="12.2" clip-path="url(#terminal-1820297094-line-8)">
</text><text class="terminal-1820297094-r11" x="36.6" y="239.6" textLength="12.2" clip-path="url(#terminal-1820297094-line-9)">│</text><text class="terminal-1820297094-r2" x="61" y="239.6" textLength="24.4" clip-path="url(#terminal-1820297094-line-9)">▌&#160;</text><text class="terminal-1820297094-r2" x="85.4" y="239.6" textLength="48.8" clip-path="url(#terminal-1820297094-line-9)">ROOK</text><text class="terminal-1820297094-r1" x="1464" y="239.6" textLength="12.2" clip-path="url(#terminal-1820297094-line-9)">
</text><text class="terminal-1820297094-r11" x="36.6" y="264" textLength="12.2" clip-path="url(#terminal-1820297094-line-10)">│</text><text class="terminal-1820297094-r10" x="61" y="264" textLength="427" clip-path="url(#terminal-1820297094-line-10)">我已定位直接受影响的测试。执行命令会进入受控子进程，需要你的明确许可。</text><text class="terminal-1820297094-r1" x="1464" y="264" textLength="12.2" clip-path="url(#terminal-1820297094-line-10)">
</text><text class="terminal-1820297094-r1" x="1464" y="288.4" textLength="12.2" clip-path="url(#terminal-1820297094-line-11)">
</text><text class="terminal-1820297094-r12" x="36.6" y="312.8" textLength="12.2" clip-path="url(#terminal-1820297094-line-12)">│</text><text class="terminal-1820297094-r12" x="61" y="312.8" textLength="244" clip-path="url(#terminal-1820297094-line-12)">•&#160;APPROVAL&#160;·&#160;request</text><text class="terminal-1820297094-r1" x="1464" y="312.8" textLength="12.2" clip-path="url(#terminal-1820297094-line-12)">
</text><text class="terminal-1820297094-r12" x="36.6" y="337.2" textLength="12.2" clip-path="url(#terminal-1820297094-line-13)">│</text><text class="terminal-1820297094-r12" x="61" y="337.2" textLength="353.8" clip-path="url(#terminal-1820297094-line-13)">&#160;&#160;permission&#160;requested&#160;&#160;shell</text><text class="terminal-1820297094-r1" x="1464" y="337.2" textLength="12.2" clip-path="url(#terminal-1820297094-line-13)">
</text><text class="terminal-1820297094-r12" x="36.6" y="361.6" textLength="12.2" clip-path="url(#terminal-1820297094-line-14)">│</text><text class="terminal-1820297094-r12" x="61" y="361.6" textLength="634.4" clip-path="url(#terminal-1820297094-line-14)">目标：python&#160;-m&#160;pytest&#160;-q&#160;tests/test_release_service.py</text><text class="terminal-1820297094-r1" x="1464" y="361.6" textLength="12.2" clip-path="url(#terminal-1820297094-line-14)">
</text><text class="terminal-1820297094-r12" x="36.6" y="386" textLength="12.2" clip-path="url(#terminal-1820297094-line-15)">│</text><text class="terminal-1820297094-r12" x="61" y="386" textLength="244" clip-path="url(#terminal-1820297094-line-15)">原因：验证审批、部署、漂移检测和回滚路径</text><text class="terminal-1820297094-r1" x="1464" y="386" textLength="12.2" clip-path="url(#terminal-1820297094-line-15)">
</text><text class="terminal-1820297094-r12" x="36.6" y="410.4" textLength="12.2" clip-path="url(#terminal-1820297094-line-16)">│</text><text class="terminal-1820297094-r12" x="61" y="410.4" textLength="512.4" clip-path="url(#terminal-1820297094-line-16)">[1]&#160;deny&#160;&#160;[2]&#160;allow&#160;once&#160;&#160;[3]&#160;allow&#160;always</text><text class="terminal-1820297094-r1" x="1464" y="410.4" textLength="12.2" clip-path="url(#terminal-1820297094-line-16)">
</text><text class="terminal-1820297094-r1" x="1464" y="434.8" textLength="12.2" clip-path="url(#terminal-1820297094-line-17)">
</text><text class="terminal-1820297094-r1" x="1464" y="459.2" textLength="12.2" clip-path="url(#terminal-1820297094-line-18)">
</text><text class="terminal-1820297094-r1" x="1464" y="483.6" textLength="12.2" clip-path="url(#terminal-1820297094-line-19)">
</text><text class="terminal-1820297094-r1" x="1464" y="508" textLength="12.2" clip-path="url(#terminal-1820297094-line-20)">
</text><text class="terminal-1820297094-r1" x="1464" y="532.4" textLength="12.2" clip-path="url(#terminal-1820297094-line-21)">
</text><text class="terminal-1820297094-r1" x="1464" y="556.8" textLength="12.2" clip-path="url(#terminal-1820297094-line-22)">
</text><text class="terminal-1820297094-r1" x="1464" y="581.2" textLength="12.2" clip-path="url(#terminal-1820297094-line-23)">
</text><text class="terminal-1820297094-r1" x="1464" y="605.6" textLength="12.2" clip-path="url(#terminal-1820297094-line-24)">
</text><text class="terminal-1820297094-r1" x="1464" y="630" textLength="12.2" clip-path="url(#terminal-1820297094-line-25)">
</text><text class="terminal-1820297094-r1" x="1464" y="654.4" textLength="12.2" clip-path="url(#terminal-1820297094-line-26)">
</text><text class="terminal-1820297094-r1" x="1464" y="678.8" textLength="12.2" clip-path="url(#terminal-1820297094-line-27)">
</text><text class="terminal-1820297094-r1" x="1464" y="703.2" textLength="12.2" clip-path="url(#terminal-1820297094-line-28)">
</text><text class="terminal-1820297094-r1" x="1464" y="727.6" textLength="12.2" clip-path="url(#terminal-1820297094-line-29)">
</text><text class="terminal-1820297094-r11" x="36.6" y="752" textLength="1390.8" clip-path="url(#terminal-1820297094-line-30)">waiting&#160;·&#160;permission&#160;required&#160;&#160;&#160;&#160;&#160;&#160;&#160;&#160;&#160;&#160;&#160;&#160;&#160;&#160;&#160;&#160;&#160;&#160;&#160;&#160;&#160;&#160;&#160;&#160;&#160;&#160;&#160;&#160;&#160;&#160;&#160;&#160;&#160;&#160;&#160;&#160;&#160;&#160;&#160;&#160;&#160;&#160;&#160;&#160;&#160;&#160;&#160;&#160;&#160;&#160;&#160;&#160;&#160;&#160;&#160;&#160;&#160;&#160;&#160;&#160;&#160;&#160;&#160;&#160;&#160;&#160;&#160;&#160;&#160;&#160;&#160;0.0s&#160;·&#160;0&#160;tools</text><text class="terminal-1820297094-r1" x="1464" y="752" textLength="12.2" clip-path="url(#terminal-1820297094-line-30)">
</text><text class="terminal-1820297094-r11" x="24.4" y="776.4" textLength="12.2" clip-path="url(#terminal-1820297094-line-31)">┌</text><text class="terminal-1820297094-r11" x="36.6" y="776.4" textLength="1390.8" clip-path="url(#terminal-1820297094-line-31)">──────────────────────────────────────────────────────────────────────────────────────────────────────────────────</text><text class="terminal-1820297094-r11" x="1427.4" y="776.4" textLength="12.2" clip-path="url(#terminal-1820297094-line-31)">┐</text><text class="terminal-1820297094-r1" x="1464" y="776.4" textLength="12.2" clip-path="url(#terminal-1820297094-line-31)">
</text><text class="terminal-1820297094-r11" x="24.4" y="800.8" textLength="12.2" clip-path="url(#terminal-1820297094-line-32)">│</text><text class="terminal-1820297094-r8" x="61" y="800.8" textLength="341.6" clip-path="url(#terminal-1820297094-line-32)">输入消息，Enter&#160;发送，Shift+Enter&#160;换行</text><text class="terminal-1820297094-r11" x="1427.4" y="800.8" textLength="12.2" clip-path="url(#terminal-1820297094-line-32)">│</text><text class="terminal-1820297094-r1" x="1464" y="800.8" textLength="12.2" clip-path="url(#terminal-1820297094-line-32)">
</text><text class="terminal-1820297094-r11" x="24.4" y="825.2" textLength="12.2" clip-path="url(#terminal-1820297094-line-33)">│</text><text class="terminal-1820297094-r11" x="1427.4" y="825.2" textLength="12.2" clip-path="url(#terminal-1820297094-line-33)">│</text><text class="terminal-1820297094-r1" x="1464" y="825.2" textLength="12.2" clip-path="url(#terminal-1820297094-line-33)">
</text><text class="terminal-1820297094-r11" x="24.4" y="849.6" textLength="12.2" clip-path="url(#terminal-1820297094-line-34)">│</text><text class="terminal-1820297094-r11" x="1427.4" y="849.6" textLength="12.2" clip-path="url(#terminal-1820297094-line-34)">│</text><text class="terminal-1820297094-r1" x="1464" y="849.6" textLength="12.2" clip-path="url(#terminal-1820297094-line-34)">
</text><text class="terminal-1820297094-r11" x="24.4" y="874" textLength="12.2" clip-path="url(#terminal-1820297094-line-35)">└</text><text class="terminal-1820297094-r11" x="36.6" y="874" textLength="1390.8" clip-path="url(#terminal-1820297094-line-35)">──────────────────────────────────────────────────────────────────────────────────────────────────────────────────</text><text class="terminal-1820297094-r11" x="1427.4" y="874" textLength="12.2" clip-path="url(#terminal-1820297094-line-35)">┘</text><text class="terminal-1820297094-r1" x="1464" y="874" textLength="12.2" clip-path="url(#terminal-1820297094-line-35)">
</text><text class="terminal-1820297094-r1" x="1464" y="898.4" textLength="12.2" clip-path="url(#terminal-1820297094-line-36)">
</text><text class="terminal-1820297094-r8" x="36.6" y="922.8" textLength="1110.2" clip-path="url(#terminal-1820297094-line-37)">/help&#160;命令&#160;·&#160;/keys&#160;快捷键&#160;·&#160;Ctrl+R&#160;历史&#160;·&#160;Ctrl+Shift+C&#160;复制&#160;·&#160;Alt+P&#160;模型&#160;&#160;|&#160;&#160;Context&#160;未观测&#160;&#160;|&#160;&#160;Token&#160;未观测</text>
    </g>
    </g>
</svg>
