<svg class="rich-terminal" viewBox="0 0 1482 977.1999999999999" xmlns="http://www.w3.org/2000/svg">
    <!-- Generated with Rich https://www.textualize.io -->
    <style>

    .terminal-1216688286-matrix {
        font-family: "Noto Sans SC", "Microsoft YaHei", sans-serif;
        font-size: 20px;
        line-height: 24.4px;
        font-variant-east-asian: full-width;
    }

    .terminal-1216688286-title {
        font-size: 18px;
        font-weight: bold;
        font-family: arial;
    }

    .terminal-1216688286-r1 { fill: #c5c8c6 }
.terminal-1216688286-r2 { fill: #79e6b3;font-weight: bold }
.terminal-1216688286-r3 { fill: #f2c14e }
.terminal-1216688286-r4 { fill: #b5c3c9 }
.terminal-1216688286-r5 { fill: #f2f7f5;font-weight: bold }
.terminal-1216688286-r6 { fill: #2a4b5f }
.terminal-1216688286-r7 { fill: #38cfe0 }
.terminal-1216688286-r8 { fill: #8798a1 }
.terminal-1216688286-r9 { fill: #b5c3c9;font-weight: bold }
.terminal-1216688286-r10 { fill: #081018;font-weight: bold }
.terminal-1216688286-r11 { fill: #f2f7f5 }
.terminal-1216688286-r12 { fill: #79e6b3 }
    </style>

    <defs>
    <clipPath id="terminal-1216688286-clip-terminal">
      <rect x="0" y="0" width="1463.0" height="926.1999999999999" />
    </clipPath>
    <clipPath id="terminal-1216688286-line-0">
    <rect x="0" y="1.5" width="1464" height="24.65"/>
            </clipPath>
<clipPath id="terminal-1216688286-line-1">
    <rect x="0" y="25.9" width="1464" height="24.65"/>
            </clipPath>
<clipPath id="terminal-1216688286-line-2">
    <rect x="0" y="50.3" width="1464" height="24.65"/>
            </clipPath>
<clipPath id="terminal-1216688286-line-3">
    <rect x="0" y="74.7" width="1464" height="24.65"/>
            </clipPath>
<clipPath id="terminal-1216688286-line-4">
    <rect x="0" y="99.1" width="1464" height="24.65"/>
            </clipPath>
<clipPath id="terminal-1216688286-line-5">
    <rect x="0" y="123.5" width="1464" height="24.65"/>
            </clipPath>
<clipPath id="terminal-1216688286-line-6">
    <rect x="0" y="147.9" width="1464" height="24.65"/>
            </clipPath>
<clipPath id="terminal-1216688286-line-7">
    <rect x="0" y="172.3" width="1464" height="24.65"/>
            </clipPath>
<clipPath id="terminal-1216688286-line-8">
    <rect x="0" y="196.7" width="1464" height="24.65"/>
            </clipPath>
<clipPath id="terminal-1216688286-line-9">
    <rect x="0" y="221.1" width="1464" height="24.65"/>
            </clipPath>
<clipPath id="terminal-1216688286-line-10">
    <rect x="0" y="245.5" width="1464" height="24.65"/>
            </clipPath>
<clipPath id="terminal-1216688286-line-11">
    <rect x="0" y="269.9" width="1464" height="24.65"/>
            </clipPath>
<clipPath id="terminal-1216688286-line-12">
    <rect x="0" y="294.3" width="1464" height="24.65"/>
            </clipPath>
<clipPath id="terminal-1216688286-line-13">
    <rect x="0" y="318.7" width="1464" height="24.65"/>
            </clipPath>
<clipPath id="terminal-1216688286-line-14">
    <rect x="0" y="343.1" width="1464" height="24.65"/>
            </clipPath>
<clipPath id="terminal-1216688286-line-15">
    <rect x="0" y="367.5" width="1464" height="24.65"/>
            </clipPath>
<clipPath id="terminal-1216688286-line-16">
    <rect x="0" y="391.9" width="1464" height="24.65"/>
            </clipPath>
<clipPath id="terminal-1216688286-line-17">
    <rect x="0" y="416.3" width="1464" height="24.65"/>
            </clipPath>
<clipPath id="terminal-1216688286-line-18">
    <rect x="0" y="440.7" width="1464" height="24.65"/>
            </clipPath>
<clipPath id="terminal-1216688286-line-19">
    <rect x="0" y="465.1" width="1464" height="24.65"/>
            </clipPath>
<clipPath id="terminal-1216688286-line-20">
    <rect x="0" y="489.5" width="1464" height="24.65"/>
            </clipPath>
<clipPath id="terminal-1216688286-line-21">
    <rect x="0" y="513.9" width="1464" height="24.65"/>
            </clipPath>
<clipPath id="terminal-1216688286-line-22">
    <rect x="0" y="538.3" width="1464" height="24.65"/>
            </clipPath>
<clipPath id="terminal-1216688286-line-23">
    <rect x="0" y="562.7" width="1464" height="24.65"/>
            </clipPath>
<clipPath id="terminal-1216688286-line-24">
    <rect x="0" y="587.1" width="1464" height="24.65"/>
            </clipPath>
<clipPath id="terminal-1216688286-line-25">
    <rect x="0" y="611.5" width="1464" height="24.65"/>
            </clipPath>
<clipPath id="terminal-1216688286-line-26">
    <rect x="0" y="635.9" width="1464" height="24.65"/>
            </clipPath>
<clipPath id="terminal-1216688286-line-27">
    <rect x="0" y="660.3" width="1464" height="24.65"/>
            </clipPath>
<clipPath id="terminal-1216688286-line-28">
    <rect x="0" y="684.7" width="1464" height="24.65"/>
            </clipPath>
<clipPath id="terminal-1216688286-line-29">
    <rect x="0" y="709.1" width="1464" height="24.65"/>
            </clipPath>
<clipPath id="terminal-1216688286-line-30">
    <rect x="0" y="733.5" width="1464" height="24.65"/>
            </clipPath>
<clipPath id="terminal-1216688286-line-31">
    <rect x="0" y="757.9" width="1464" height="24.65"/>
            </clipPath>
<clipPath id="terminal-1216688286-line-32">
    <rect x="0" y="782.3" width="1464" height="24.65"/>
            </clipPath>
<clipPath id="terminal-1216688286-line-33">
    <rect x="0" y="806.7" width="1464" height="24.65"/>
            </clipPath>
<clipPath id="terminal-1216688286-line-34">
    <rect x="0" y="831.1" width="1464" height="24.65"/>
            </clipPath>
<clipPath id="terminal-1216688286-line-35">
    <rect x="0" y="855.5" width="1464" height="24.65"/>
            </clipPath>
<clipPath id="terminal-1216688286-line-36">
    <rect x="0" y="879.9" width="1464" height="24.65"/>
            </clipPath>
    </defs>

    <rect fill="#292929" stroke="rgba(255,255,255,0.35)" stroke-width="1" x="1" y="1" width="1480" height="975.2" rx="8"/><text class="terminal-1216688286-title" fill="#c5c8c6" text-anchor="middle" x="740" y="27">Rook&#160;TUI&#160;·&#160;workbench</text>
            <g transform="translate(26,22)">
            <circle cx="0" cy="0" r="7" fill="#ff5f57"/>
            <circle cx="22" cy="0" r="7" fill="#febc2e"/>
            <circle cx="44" cy="0" r="7" fill="#28c840"/>
            </g>

    <g transform="translate(9, 41)" clip-path="url(#terminal-1216688286-clip-terminal)">
    <rect fill="#101b26" x="0" y="1.5" width="24.4" height="24.65" shape-rendering="crispEdges"/><rect fill="#101b26" x="24.4" y="1.5" width="36.6" height="24.65" shape-rendering="crispEdges"/><rect fill="#101b26" x="61" y="1.5" width="12.2" height="24.65" shape-rendering="crispEdges"/><rect fill="#101b26" x="73.2" y="1.5" width="12.2" height="24.65" shape-rendering="crispEdges"/><rect fill="#101b26" x="85.4" y="1.5" width="48.8" height="24.65" shape-rendering="crispEdges"/><rect fill="#101b26" x="134.2" y="1.5" width="951.6" height="24.65" shape-rendering="crispEdges"/><rect fill="#101b26" x="1085.8" y="1.5" width="73.2" height="24.65" shape-rendering="crispEdges"/><rect fill="#101b26" x="1159" y="1.5" width="12.2" height="24.65" shape-rendering="crispEdges"/><rect fill="#101b26" x="1171.2" y="1.5" width="12.2" height="24.65" shape-rendering="crispEdges"/><rect fill="#101b26" x="1183.4" y="1.5" width="12.2" height="24.65" shape-rendering="crispEdges"/><rect fill="#101b26" x="1195.6" y="1.5" width="207.4" height="24.65" shape-rendering="crispEdges"/><rect fill="#101b26" x="1403" y="1.5" width="36.6" height="24.65" shape-rendering="crispEdges"/><rect fill="#101b26" x="1439.6" y="1.5" width="24.4" height="24.65" shape-rendering="crispEdges"/><rect fill="#101b26" x="0" y="25.9" width="1464" height="24.65" shape-rendering="crispEdges"/><rect fill="#081018" x="0" y="50.3" width="1390.8" height="24.65" shape-rendering="crispEdges"/><rect fill="#081018" x="1390.8" y="50.3" width="73.2" height="24.65" shape-rendering="crispEdges"/><rect fill="#081018" x="0" y="74.7" width="36.6" height="24.65" shape-rendering="crispEdges"/><rect fill="#101b26" x="36.6" y="74.7" width="12.2" height="24.65" shape-rendering="crispEdges"/><rect fill="#101b26" x="48.8" y="74.7" width="12.2" height="24.65" shape-rendering="crispEdges"/><rect fill="#101b26" x="61" y="74.7" width="24.4" height="24.65" shape-rendering="crispEdges"/><rect fill="#101b26" x="85.4" y="74.7" width="36.6" height="24.65" shape-rendering="crispEdges"/><rect fill="#101b26" x="122" y="74.7" width="1220" height="24.65" shape-rendering="crispEdges"/><rect fill="#101b26" x="1342" y="74.7" width="12.2" height="24.65" shape-rendering="crispEdges"/><rect fill="#081018" x="1354.2" y="74.7" width="36.6" height="24.65" shape-rendering="crispEdges"/><rect fill="#081018" x="1390.8" y="74.7" width="73.2" height="24.65" shape-rendering="crispEdges"/><rect fill="#081018" x="0" y="99.1" width="36.6" height="24.65" shape-rendering="crispEdges"/><rect fill="#101b26" x="36.6" y="99.1" width="12.2" height="24.65" shape-rendering="crispEdges"/><rect fill="#101b26" x="48.8" y="99.1" width="12.2" height="24.65" shape-rendering="crispEdges"/><rect fill="#101b26" x="61" y="99.1" width="976" height="24.65" shape-rendering="crispEdges"/><rect fill="#101b26" x="1037" y="99.1" width="305" height="24.65" shape-rendering="crispEdges"/><rect fill="#101b26" x="1342" y="99.1" width="12.2" height="24.65" shape-rendering="crispEdges"/><rect fill="#081018" x="1354.2" y="99.1" width="36.6" height="24.65" shape-rendering="crispEdges"/><rect fill="#081018" x="1390.8" y="99.1" width="73.2" height="24.65" shape-rendering="crispEdges"/><rect fill="#081018" x="0" y="123.5" width="36.6" height="24.65" shape-rendering="crispEdges"/><rect fill="#081018" x="36.6" y="123.5" width="1317.6" height="24.65" shape-rendering="crispEdges"/><rect fill="#081018" x="1354.2" y="123.5" width="36.6" height="24.65" shape-rendering="crispEdges"/><rect fill="#081018" x="1390.8" y="123.5" width="73.2" height="24.65" shape-rendering="crispEdges"/><rect fill="#081018" x="0" y="147.9" width="36.6" height="24.65" shape-rendering="crispEdges"/><rect fill="#101b26" x="36.6" y="147.9" width="12.2" height="24.65" shape-rendering="crispEdges"/><rect fill="#101b26" x="48.8" y="147.9" width="12.2" height="24.65" shape-rendering="crispEdges"/><rect fill="#101b26" x="61" y="147.9" width="207.4" height="24.65" shape-rendering="crispEdges"/><rect fill="#101b26" x="268.4" y="147.9" width="1073.6" height="24.65" shape-rendering="crispEdges"/><rect fill="#101b26" x="1342" y="147.9" width="12.2" height="24.65" shape-rendering="crispEdges"/><rect fill="#081018" x="1354.2" y="147.9" width="36.6" height="24.65" shape-rendering="crispEdges"/><rect fill="#081018" x="1390.8" y="147.9" width="73.2" height="24.65" shape-rendering="crispEdges"/><rect fill="#081018" x="0" y="172.3" width="36.6" height="24.65" shape-rendering="crispEdges"/><rect fill="#101b26" x="36.6" y="172.3" width="12.2" height="24.65" shape-rendering="crispEdges"/><rect fill="#101b26" x="48.8" y="172.3" width="12.2" height="24.65" shape-rendering="crispEdges"/><rect fill="#101b26" x="61" y="172.3" width="353.8" height="24.65" shape-rendering="crispEdges"/><rect fill="#101b26" x="414.8" y="172.3" width="927.2" height="24.65" shape-rendering="crispEdges"/><rect fill="#101b26" x="1342" y="172.3" width="12.2" height="24.65" shape-rendering="crispEdges"/><rect fill="#081018" x="1354.2" y="172.3" width="36.6" height="24.65" shape-rendering="crispEdges"/><rect fill="#081018" x="1390.8" y="172.3" width="73.2" height="24.65" shape-rendering="crispEdges"/><rect fill="#081018" x="0" y="196.7" width="36.6" height="24.65" shape-rendering="crispEdges"/><rect fill="#101b26" x="36.6" y="196.7" width="12.2" height="24.65" shape-rendering="crispEdges"/><rect fill="#101b26" x="48.8" y="196.7" width="12.2" height="24.65" shape-rendering="crispEdges"/><rect fill="#101b26" x="61" y="196.7" width="512.4" height="24.65" shape-rendering="crispEdges"/><rect fill="#101b26" x="573.4" y="196.7" width="768.6" height="24.65" shape-rendering="crispEdges"/><rect fill="#101b26" x="1342" y="196.7" width="12.2" height="24.65" shape-rendering="crispEdges"/><rect fill="#081018" x="1354.2" y="196.7" width="36.6" height="24.65" shape-rendering="crispEdges"/><rect fill="#081018" x="1390.8" y="196.7" width="73.2" height="24.65" shape-rendering="crispEdges"/><rect fill="#081018" x="0" y="221.1" width="36.6" height="24.65" shape-rendering="crispEdges"/><rect fill="#081018" x="36.6" y="221.1" width="1317.6" height="24.65" shape-rendering="crispEdges"/><rect fill="#081018" x="1354.2" y="221.1" width="36.6" height="24.65" shape-rendering="crispEdges"/><rect fill="#081018" x="1390.8" y="221.1" width="73.2" height="24.65" shape-rendering="crispEdges"/><rect fill="#081018" x="0" y="245.5" width="36.6" height="24.65" shape-rendering="crispEdges"/><rect fill="#081018" x="36.6" y="245.5" width="1317.6" height="24.65" shape-rendering="crispEdges"/><rect fill="#081018" x="1354.2" y="245.5" width="36.6" height="24.65" shape-rendering="crispEdges"/><rect fill="#081018" x="1390.8" y="245.5" width="73.2" height="24.65" shape-rendering="crispEdges"/><rect fill="#081018" x="0" y="269.9" width="36.6" height="24.65" shape-rendering="crispEdges"/><rect fill="#081018" x="36.6" y="269.9" width="1317.6" height="24.65" shape-rendering="crispEdges"/><rect fill="#081018" x="1354.2" y="269.9" width="36.6" height="24.65" shape-rendering="crispEdges"/><rect fill="#081018" x="1390.8" y="269.9" width="73.2" height="24.65" shape-rendering="crispEdges"/><rect fill="#081018" x="0" y="294.3" width="36.6" height="24.65" shape-rendering="crispEdges"/><rect fill="#081018" x="36.6" y="294.3" width="1317.6" height="24.65" shape-rendering="crispEdges"/><rect fill="#081018" x="1354.2" y="294.3" width="36.6" height="24.65" shape-rendering="crispEdges"/><rect fill="#081018" x="1390.8" y="294.3" width="73.2" height="24.65" shape-rendering="crispEdges"/><rect fill="#081018" x="0" y="318.7" width="36.6" height="24.65" shape-rendering="crispEdges"/><rect fill="#081018" x="36.6" y="318.7" width="1317.6" height="24.65" shape-rendering="crispEdges"/><rect fill="#081018" x="1354.2" y="318.7" width="36.6" height="24.65" shape-rendering="crispEdges"/><rect fill="#081018" x="1390.8" y="318.7" width="73.2" height="24.65" shape-rendering="crispEdges"/><rect fill="#081018" x="0" y="343.1" width="36.6" height="24.65" shape-rendering="crispEdges"/><rect fill="#081018" x="36.6" y="343.1" width="1317.6" height="24.65" shape-rendering="crispEdges"/><rect fill="#081018" x="1354.2" y="343.1" width="36.6" height="24.65" shape-rendering="crispEdges"/><rect fill="#081018" x="1390.8" y="343.1" width="73.2" height="24.65" shape-rendering="crispEdges"/><rect fill="#081018" x="0" y="367.5" width="36.6" height="24.65" shape-rendering="crispEdges"/><rect fill="#081018" x="36.6" y="367.5" width="1317.6" height="24.65" shape-rendering="crispEdges"/><rect fill="#081018" x="1354.2" y="367.5" width="36.6" height="24.65" shape-rendering="crispEdges"/><rect fill="#081018" x="1390.8" y="367.5" width="73.2" height="24.65" shape-rendering="crispEdges"/><rect fill="#081018" x="0" y="391.9" width="36.6" height="24.65" shape-rendering="crispEdges"/><rect fill="#081018" x="36.6" y="391.9" width="1317.6" height="24.65" shape-rendering="crispEdges"/><rect fill="#081018" x="1354.2" y="391.9" width="36.6" height="24.65" shape-rendering="crispEdges"/><rect fill="#081018" x="1390.8" y="391.9" width="73.2" height="24.65" shape-rendering="crispEdges"/><rect fill="#081018" x="0" y="416.3" width="1390.8" height="24.65" shape-rendering="crispEdges"/><rect fill="#081018" x="1390.8" y="416.3" width="73.2" height="24.65" shape-rendering="crispEdges"/><rect fill="#081018" x="0" y="440.7" width="24.4" height="24.65" shape-rendering="crispEdges"/><rect fill="#142434" x="24.4" y="440.7" width="12.2" height="24.65" shape-rendering="crispEdges"/><rect fill="#142434" x="36.6" y="440.7" width="1390.8" height="24.65" shape-rendering="crispEdges"/><rect fill="#142434" x="1427.4" y="440.7" width="12.2" height="24.65" shape-rendering="crispEdges"/><rect fill="#081018" x="1439.6" y="440.7" width="24.4" height="24.65" shape-rendering="crispEdges"/><rect fill="#081018" x="0" y="465.1" width="24.4" height="24.65" shape-rendering="crispEdges"/><rect fill="#142434" x="24.4" y="465.1" width="12.2" height="24.65" shape-rendering="crispEdges"/><rect fill="#142434" x="36.6" y="465.1" width="1390.8" height="24.65" shape-rendering="crispEdges"/><rect fill="#142434" x="1427.4" y="465.1" width="12.2" height="24.65" shape-rendering="crispEdges"/><rect fill="#081018" x="1439.6" y="465.1" width="24.4" height="24.65" shape-rendering="crispEdges"/><rect fill="#081018" x="0" y="489.5" width="24.4" height="24.65" shape-rendering="crispEdges"/><rect fill="#142434" x="24.4" y="489.5" width="12.2" height="24.65" shape-rendering="crispEdges"/><rect fill="#142434" x="36.6" y="489.5" width="24.4" height="24.65" shape-rendering="crispEdges"/><rect fill="#142434" x="61" y="489.5" width="683.2" height="24.65" shape-rendering="crispEdges"/><rect fill="#142434" x="744.2" y="489.5" width="658.8" height="24.65" shape-rendering="crispEdges"/><rect fill="#142434" x="1403" y="489.5" width="24.4" height="24.65" shape-rendering="crispEdges"/><rect fill="#142434" x="1427.4" y="489.5" width="12.2" height="24.65" shape-rendering="crispEdges"/><rect fill="#081018" x="1439.6" y="489.5" width="24.4" height="24.65" shape-rendering="crispEdges"/><rect fill="#081018" x="0" y="513.9" width="24.4" height="24.65" shape-rendering="crispEdges"/><rect fill="#142434" x="24.4" y="513.9" width="12.2" height="24.65" shape-rendering="crispEdges"/><rect fill="#142434" x="36.6" y="513.9" width="24.4" height="24.65" shape-rendering="crispEdges"/><rect fill="#79e6b3" x="61" y="513.9" width="24.4" height="24.65" shape-rendering="crispEdges"/><rect fill="#79e6b3" x="85.4" y="513.9" width="61" height="24.65" shape-rendering="crispEdges"/><rect fill="#79e6b3" x="146.4" y="513.9" width="97.6" height="24.65" shape-rendering="crispEdges"/><rect fill="#79e6b3" x="244" y="513.9" width="268.4" height="24.65" shape-rendering="crispEdges"/><rect fill="#79e6b3" x="512.4" y="513.9" width="183" height="24.65" shape-rendering="crispEdges"/><rect fill="#142434" x="695.4" y="513.9" width="707.6" height="24.65" shape-rendering="crispEdges"/><rect fill="#142434" x="1403" y="513.9" width="24.4" height="24.65" shape-rendering="crispEdges"/><rect fill="#142434" x="1427.4" y="513.9" width="12.2" height="24.65" shape-rendering="crispEdges"/><rect fill="#081018" x="1439.6" y="513.9" width="24.4" height="24.65" shape-rendering="crispEdges"/><rect fill="#081018" x="0" y="538.3" width="24.4" height="24.65" shape-rendering="crispEdges"/><rect fill="#142434" x="24.4" y="538.3" width="12.2" height="24.65" shape-rendering="crispEdges"/><rect fill="#142434" x="36.6" y="538.3" width="24.4" height="24.65" shape-rendering="crispEdges"/><rect fill="#142434" x="61" y="538.3" width="24.4" height="24.65" shape-rendering="crispEdges"/><rect fill="#142434" x="85.4" y="538.3" width="61" height="24.65" shape-rendering="crispEdges"/><rect fill="#142434" x="146.4" y="538.3" width="268.4" height="24.65" shape-rendering="crispEdges"/><rect fill="#142434" x="414.8" y="538.3" width="183" height="24.65" shape-rendering="crispEdges"/><rect fill="#142434" x="597.8" y="538.3" width="805.2" height="24.65" shape-rendering="crispEdges"/><rect fill="#142434" x="1403" y="538.3" width="24.4" height="24.65" shape-rendering="crispEdges"/><rect fill="#142434" x="1427.4" y="538.3" width="12.2" height="24.65" shape-rendering="crispEdges"/><rect fill="#081018" x="1439.6" y="538.3" width="24.4" height="24.65" shape-rendering="crispEdges"/><rect fill="#081018" x="0" y="562.7" width="24.4" height="24.65" shape-rendering="crispEdges"/><rect fill="#142434" x="24.4" y="562.7" width="12.2" height="24.65" shape-rendering="crispEdges"/><rect fill="#142434" x="36.6" y="562.7" width="24.4" height="24.65" shape-rendering="crispEdges"/><rect fill="#142434" x="61" y="562.7" width="24.4" height="24.65" shape-rendering="crispEdges"/><rect fill="#142434" x="85.4" y="562.7" width="48.8" height="24.65" shape-rendering="crispEdges"/><rect fill="#142434" x="134.2" y="562.7" width="97.6" height="24.65" shape-rendering="crispEdges"/><rect fill="#142434" x="231.8" y="562.7" width="146.4" height="24.65" shape-rendering="crispEdges"/><rect fill="#142434" x="378.2" y="562.7" width="183" height="24.65" shape-rendering="crispEdges"/><rect fill="#142434" x="561.2" y="562.7" width="841.8" height="24.65" shape-rendering="crispEdges"/><rect fill="#142434" x="1403" y="562.7" width="24.4" height="24.65" shape-rendering="crispEdges"/><rect fill="#142434" x="1427.4" y="562.7" width="12.2" height="24.65" shape-rendering="crispEdges"/><rect fill="#081018" x="1439.6" y="562.7" width="24.4" height="24.65" shape-rendering="crispEdges"/><rect fill="#081018" x="0" y="587.1" width="24.4" height="24.65" shape-rendering="crispEdges"/><rect fill="#142434" x="24.4" y="587.1" width="12.2" height="24.65" shape-rendering="crispEdges"/><rect fill="#142434" x="36.6" y="587.1" width="24.4" height="24.65" shape-rendering="crispEdges"/><rect fill="#142434" x="61" y="587.1" width="24.4" height="24.65" shape-rendering="crispEdges"/><rect fill="#142434" x="85.4" y="587.1" width="85.4" height="24.65" shape-rendering="crispEdges"/><rect fill="#142434" x="170.8" y="587.1" width="97.6" height="24.65" shape-rendering="crispEdges"/><rect fill="#142434" x="268.4" y="587.1" width="195.2" height="24.65" shape-rendering="crispEdges"/><rect fill="#142434" x="463.6" y="587.1" width="183" height="24.65" shape-rendering="crispEdges"/><rect fill="#142434" x="646.6" y="587.1" width="756.4" height="24.65" shape-rendering="crispEdges"/><rect fill="#142434" x="1403" y="587.1" width="24.4" height="24.65" shape-rendering="crispEdges"/><rect fill="#142434" x="1427.4" y="587.1" width="12.2" height="24.65" shape-rendering="crispEdges"/><rect fill="#081018" x="1439.6" y="587.1" width="24.4" height="24.65" shape-rendering="crispEdges"/><rect fill="#081018" x="0" y="611.5" width="24.4" height="24.65" shape-rendering="crispEdges"/><rect fill="#142434" x="24.4" y="611.5" width="12.2" height="24.65" shape-rendering="crispEdges"/><rect fill="#142434" x="36.6" y="611.5" width="24.4" height="24.65" shape-rendering="crispEdges"/><rect fill="#142434" x="61" y="611.5" width="24.4" height="24.65" shape-rendering="crispEdges"/><rect fill="#142434" x="85.4" y="611.5" width="85.4" height="24.65" shape-rendering="crispEdges"/><rect fill="#142434" x="170.8" y="611.5" width="158.6" height="24.65" shape-rendering="crispEdges"/><rect fill="#142434" x="329.4" y="611.5" width="170.8" height="24.65" shape-rendering="crispEdges"/><rect fill="#142434" x="500.2" y="611.5" width="183" height="24.65" shape-rendering="crispEdges"/><rect fill="#142434" x="683.2" y="611.5" width="719.8" height="24.65" shape-rendering="crispEdges"/><rect fill="#142434" x="1403" y="611.5" width="24.4" height="24.65" shape-rendering="crispEdges"/><rect fill="#142434" x="1427.4" y="611.5" width="12.2" height="24.65" shape-rendering="crispEdges"/><rect fill="#081018" x="1439.6" y="611.5" width="24.4" height="24.65" shape-rendering="crispEdges"/><rect fill="#081018" x="0" y="635.9" width="24.4" height="24.65" shape-rendering="crispEdges"/><rect fill="#142434" x="24.4" y="635.9" width="12.2" height="24.65" shape-rendering="crispEdges"/><rect fill="#142434" x="36.6" y="635.9" width="24.4" height="24.65" shape-rendering="crispEdges"/><rect fill="#142434" x="61" y="635.9" width="24.4" height="24.65" shape-rendering="crispEdges"/><rect fill="#142434" x="85.4" y="635.9" width="97.6" height="24.65" shape-rendering="crispEdges"/><rect fill="#142434" x="183" y="635.9" width="158.6" height="24.65" shape-rendering="crispEdges"/><rect fill="#142434" x="341.6" y="635.9" width="219.6" height="24.65" shape-rendering="crispEdges"/><rect fill="#142434" x="561.2" y="635.9" width="183" height="24.65" shape-rendering="crispEdges"/><rect fill="#142434" x="744.2" y="635.9" width="658.8" height="24.65" shape-rendering="crispEdges"/><rect fill="#142434" x="1403" y="635.9" width="24.4" height="24.65" shape-rendering="crispEdges"/><rect fill="#142434" x="1427.4" y="635.9" width="12.2" height="24.65" shape-rendering="crispEdges"/><rect fill="#081018" x="1439.6" y="635.9" width="24.4" height="24.65" shape-rendering="crispEdges"/><rect fill="#081018" x="0" y="660.3" width="24.4" height="24.65" shape-rendering="crispEdges"/><rect fill="#142434" x="24.4" y="660.3" width="12.2" height="24.65" shape-rendering="crispEdges"/><rect fill="#142434" x="36.6" y="660.3" width="24.4" height="24.65" shape-rendering="crispEdges"/><rect fill="#142434" x="61" y="660.3" width="24.4" height="24.65" shape-rendering="crispEdges"/><rect fill="#142434" x="85.4" y="660.3" width="109.8" height="24.65" shape-rendering="crispEdges"/><rect fill="#142434" x="195.2" y="660.3" width="219.6" height="24.65" shape-rendering="crispEdges"/><rect fill="#142434" x="414.8" y="660.3" width="183" height="24.65" shape-rendering="crispEdges"/><rect fill="#142434" x="597.8" y="660.3" width="805.2" height="24.65" shape-rendering="crispEdges"/><rect fill="#142434" x="1403" y="660.3" width="24.4" height="24.65" shape-rendering="crispEdges"/><rect fill="#142434" x="1427.4" y="660.3" width="12.2" height="24.65" shape-rendering="crispEdges"/><rect fill="#081018" x="1439.6" y="660.3" width="24.4" height="24.65" shape-rendering="crispEdges"/><rect fill="#081018" x="0" y="684.7" width="24.4" height="24.65" shape-rendering="crispEdges"/><rect fill="#142434" x="24.4" y="684.7" width="12.2" height="24.65" shape-rendering="crispEdges"/><rect fill="#142434" x="36.6" y="684.7" width="1390.8" height="24.65" shape-rendering="crispEdges"/><rect fill="#142434" x="1427.4" y="684.7" width="12.2" height="24.65" shape-rendering="crispEdges"/><rect fill="#081018" x="1439.6" y="684.7" width="24.4" height="24.65" shape-rendering="crispEdges"/><rect fill="#081018" x="0" y="709.1" width="24.4" height="24.65" shape-rendering="crispEdges"/><rect fill="#142434" x="24.4" y="709.1" width="12.2" height="24.65" shape-rendering="crispEdges"/><rect fill="#142434" x="36.6" y="709.1" width="1390.8" height="24.65" shape-rendering="crispEdges"/><rect fill="#142434" x="1427.4" y="709.1" width="12.2" height="24.65" shape-rendering="crispEdges"/><rect fill="#081018" x="1439.6" y="709.1" width="24.4" height="24.65" shape-rendering="crispEdges"/><rect fill="#081018" x="0" y="733.5" width="36.6" height="24.65" shape-rendering="crispEdges"/><rect fill="#081018" x="36.6" y="733.5" width="1390.8" height="24.65" shape-rendering="crispEdges"/><rect fill="#081018" x="1427.4" y="733.5" width="36.6" height="24.65" shape-rendering="crispEdges"/><rect fill="#081018" x="0" y="757.9" width="24.4" height="24.65" shape-rendering="crispEdges"/><rect fill="#101b26" x="24.4" y="757.9" width="12.2" height="24.65" shape-rendering="crispEdges"/><rect fill="#101b26" x="36.6" y="757.9" width="1390.8" height="24.65" shape-rendering="crispEdges"/><rect fill="#101b26" x="1427.4" y="757.9" width="12.2" height="24.65" shape-rendering="crispEdges"/><rect fill="#081018" x="1439.6" y="757.9" width="24.4" height="24.65" shape-rendering="crispEdges"/><rect fill="#081018" x="0" y="782.3" width="24.4" height="24.65" shape-rendering="crispEdges"/><rect fill="#101b26" x="24.4" y="782.3" width="12.2" height="24.65" shape-rendering="crispEdges"/><rect fill="#101b26" x="36.6" y="782.3" width="12.2" height="24.65" shape-rendering="crispEdges"/><rect fill="#101b26" x="48.8" y="782.3" width="12.2" height="24.65" shape-rendering="crispEdges"/><rect fill="#101b26" x="61" y="782.3" width="24.4" height="24.65" shape-rendering="crispEdges"/><rect fill="#101b26" x="85.4" y="782.3" width="1317.6" height="24.65" shape-rendering="crispEdges"/><rect fill="#101b26" x="1403" y="782.3" width="12.2" height="24.65" shape-rendering="crispEdges"/><rect fill="#101b26" x="1415.2" y="782.3" width="12.2" height="24.65" shape-rendering="crispEdges"/><rect fill="#101b26" x="1427.4" y="782.3" width="12.2" height="24.65" shape-rendering="crispEdges"/><rect fill="#081018" x="1439.6" y="782.3" width="24.4" height="24.65" shape-rendering="crispEdges"/><rect fill="#081018" x="0" y="806.7" width="24.4" height="24.65" shape-rendering="crispEdges"/><rect fill="#101b26" x="24.4" y="806.7" width="12.2" height="24.65" shape-rendering="crispEdges"/><rect fill="#101b26" x="36.6" y="806.7" width="12.2" height="24.65" shape-rendering="crispEdges"/><rect fill="#101b26" x="48.8" y="806.7" width="12.2" height="24.65" shape-rendering="crispEdges"/><rect fill="#101b26" x="61" y="806.7" width="1342" height="24.65" shape-rendering="crispEdges"/><rect fill="#101b26" x="1403" y="806.7" width="12.2" height="24.65" shape-rendering="crispEdges"/><rect fill="#101b26" x="1415.2" y="806.7" width="12.2" height="24.65" shape-rendering="crispEdges"/><rect fill="#101b26" x="1427.4" y="806.7" width="12.2" height="24.65" shape-rendering="crispEdges"/><rect fill="#081018" x="1439.6" y="806.7" width="24.4" height="24.65" shape-rendering="crispEdges"/><rect fill="#081018" x="0" y="831.1" width="24.4" height="24.65" shape-rendering="crispEdges"/><rect fill="#101b26" x="24.4" y="831.1" width="12.2" height="24.65" shape-rendering="crispEdges"/><rect fill="#101b26" x="36.6" y="831.1" width="12.2" height="24.65" shape-rendering="crispEdges"/><rect fill="#101b26" x="48.8" y="831.1" width="12.2" height="24.65" shape-rendering="crispEdges"/><rect fill="#101b26" x="61" y="831.1" width="1342" height="24.65" shape-rendering="crispEdges"/><rect fill="#101b26" x="1403" y="831.1" width="12.2" height="24.65" shape-rendering="crispEdges"/><rect fill="#101b26" x="1415.2" y="831.1" width="12.2" height="24.65" shape-rendering="crispEdges"/><rect fill="#101b26" x="1427.4" y="831.1" width="12.2" height="24.65" shape-rendering="crispEdges"/><rect fill="#081018" x="1439.6" y="831.1" width="24.4" height="24.65" shape-rendering="crispEdges"/><rect fill="#081018" x="0" y="855.5" width="24.4" height="24.65" shape-rendering="crispEdges"/><rect fill="#101b26" x="24.4" y="855.5" width="12.2" height="24.65" shape-rendering="crispEdges"/><rect fill="#101b26" x="36.6" y="855.5" width="1390.8" height="24.65" shape-rendering="crispEdges"/><rect fill="#101b26" x="1427.4" y="855.5" width="12.2" height="24.65" shape-rendering="crispEdges"/><rect fill="#081018" x="1439.6" y="855.5" width="24.4" height="24.65" shape-rendering="crispEdges"/><rect fill="#081018" x="0" y="879.9" width="1464" height="24.65" shape-rendering="crispEdges"/><rect fill="#081018" x="0" y="904.3" width="36.6" height="24.65" shape-rendering="crispEdges"/><rect fill="#081018" x="36.6" y="904.3" width="1317.6" height="24.65" shape-rendering="crispEdges"/><rect fill="#081018" x="1354.2" y="904.3" width="73.2" height="24.65" shape-rendering="crispEdges"/><rect fill="#081018" x="1427.4" y="904.3" width="36.6" height="24.65" shape-rendering="crispEdges"/>
    <g class="terminal-1216688286-matrix">
    <text class="terminal-1216688286-r2" x="24.4" y="20" textLength="36.6" clip-path="url(#terminal-1216688286-line-0)">(&#x27;)</text><text class="terminal-1216688286-r3" x="61" y="20" textLength="12.2" clip-path="url(#terminal-1216688286-line-0)">&gt;</text><text class="terminal-1216688286-r5" x="85.4" y="20" textLength="48.8" clip-path="url(#terminal-1216688286-line-0)">ROOK</text><text class="terminal-1216688286-r4" x="1085.8" y="20" textLength="73.2" clip-path="url(#terminal-1216688286-line-0)">@&#160;Rook</text><text class="terminal-1216688286-r6" x="1171.2" y="20" textLength="12.2" clip-path="url(#terminal-1216688286-line-0)">·</text><text class="terminal-1216688286-r7" x="1195.6" y="20" textLength="207.4" clip-path="url(#terminal-1216688286-line-0)">OpenAI-compatible</text><text class="terminal-1216688286-r8" x="1403" y="20" textLength="36.6" clip-path="url(#terminal-1216688286-line-0)">/g…</text><text class="terminal-1216688286-r1" x="1464" y="20" textLength="12.2" clip-path="url(#terminal-1216688286-line-0)">
</text><text class="terminal-1216688286-r6" x="0" y="44.4" textLength="1464" clip-path="url(#terminal-1216688286-line-1)">────────────────────────────────────────────────────────────────────────────────────────────────────────────────────────</text><text class="terminal-1216688286-r1" x="1464" y="44.4" textLength="12.2" clip-path="url(#terminal-1216688286-line-1)">
</text><text class="terminal-1216688286-r1" x="1464" y="68.8" textLength="12.2" clip-path="url(#terminal-1216688286-line-2)">
</text><text class="terminal-1216688286-r6" x="36.6" y="93.2" textLength="12.2" clip-path="url(#terminal-1216688286-line-3)">│</text><text class="terminal-1216688286-r9" x="61" y="93.2" textLength="24.4" clip-path="url(#terminal-1216688286-line-3)">▌&#160;</text><text class="terminal-1216688286-r9" x="85.4" y="93.2" textLength="36.6" clip-path="url(#terminal-1216688286-line-3)">SYS</text><text class="terminal-1216688286-r1" x="1464" y="93.2" textLength="12.2" clip-path="url(#terminal-1216688286-line-3)">
</text><text class="terminal-1216688286-r6" x="36.6" y="117.6" textLength="12.2" clip-path="url(#terminal-1216688286-line-4)">│</text><text class="terminal-1216688286-r4" x="61" y="117.6" textLength="622.2" clip-path="url(#terminal-1216688286-line-4)">Coding&#160;Workbench：输出可选择复制；/&#160;管理会话与工具；@&#160;引用文件；!&#160;运行受控命令。</text><text class="terminal-1216688286-r1" x="1464" y="117.6" textLength="12.2" clip-path="url(#terminal-1216688286-line-4)">
</text><text class="terminal-1216688286-r1" x="1464" y="142" textLength="12.2" clip-path="url(#terminal-1216688286-line-5)">
</text><text class="terminal-1216688286-r6" x="36.6" y="166.4" textLength="12.2" clip-path="url(#terminal-1216688286-line-6)">│</text><text class="terminal-1216688286-r4" x="61" y="166.4" textLength="207.4" clip-path="url(#terminal-1216688286-line-6)">•&#160;TOOL&#160;·&#160;activity</text><text class="terminal-1216688286-r1" x="1464" y="166.4" textLength="12.2" clip-path="url(#terminal-1216688286-line-6)">
</text><text class="terminal-1216688286-r6" x="36.6" y="190.8" textLength="12.2" clip-path="url(#terminal-1216688286-line-7)">│</text><text class="terminal-1216688286-r4" x="61" y="190.8" textLength="353.8" clip-path="url(#terminal-1216688286-line-7)">&#160;&#160;git&#160;status&#160;·&#160;success&#160;·&#160;0.4s</text><text class="terminal-1216688286-r1" x="1464" y="190.8" textLength="12.2" clip-path="url(#terminal-1216688286-line-7)">
</text><text class="terminal-1216688286-r6" x="36.6" y="215.2" textLength="12.2" clip-path="url(#terminal-1216688286-line-8)">│</text><text class="terminal-1216688286-r4" x="61" y="215.2" textLength="305" clip-path="url(#terminal-1216688286-line-8)">&#160;&#160;工作树&#160;clean；命令已通过权限与执行边界。</text><text class="terminal-1216688286-r1" x="1464" y="215.2" textLength="12.2" clip-path="url(#terminal-1216688286-line-8)">
</text><text class="terminal-1216688286-r1" x="1464" y="239.6" textLength="12.2" clip-path="url(#terminal-1216688286-line-9)">
</text><text class="terminal-1216688286-r1" x="1464" y="264" textLength="12.2" clip-path="url(#terminal-1216688286-line-10)">
</text><text class="terminal-1216688286-r1" x="1464" y="288.4" textLength="12.2" clip-path="url(#terminal-1216688286-line-11)">
</text><text class="terminal-1216688286-r1" x="1464" y="312.8" textLength="12.2" clip-path="url(#terminal-1216688286-line-12)">
</text><text class="terminal-1216688286-r1" x="1464" y="337.2" textLength="12.2" clip-path="url(#terminal-1216688286-line-13)">
</text><text class="terminal-1216688286-r1" x="1464" y="361.6" textLength="12.2" clip-path="url(#terminal-1216688286-line-14)">
</text><text class="terminal-1216688286-r1" x="1464" y="386" textLength="12.2" clip-path="url(#terminal-1216688286-line-15)">
</text><text class="terminal-1216688286-r1" x="1464" y="410.4" textLength="12.2" clip-path="url(#terminal-1216688286-line-16)">
</text><text class="terminal-1216688286-r1" x="1464" y="434.8" textLength="12.2" clip-path="url(#terminal-1216688286-line-17)">
</text><text class="terminal-1216688286-r7" x="24.4" y="459.2" textLength="12.2" clip-path="url(#terminal-1216688286-line-18)">┌</text><text class="terminal-1216688286-r7" x="36.6" y="459.2" textLength="1390.8" clip-path="url(#terminal-1216688286-line-18)">──────────────────────────────────────────────────────────────────────────────────────────────────────────────────</text><text class="terminal-1216688286-r7" x="1427.4" y="459.2" textLength="12.2" clip-path="url(#terminal-1216688286-line-18)">┐</text><text class="terminal-1216688286-r1" x="1464" y="459.2" textLength="12.2" clip-path="url(#terminal-1216688286-line-18)">
</text><text class="terminal-1216688286-r7" x="24.4" y="483.6" textLength="12.2" clip-path="url(#terminal-1216688286-line-19)">│</text><text class="terminal-1216688286-r7" x="1427.4" y="483.6" textLength="12.2" clip-path="url(#terminal-1216688286-line-19)">│</text><text class="terminal-1216688286-r1" x="1464" y="483.6" textLength="12.2" clip-path="url(#terminal-1216688286-line-19)">
</text><text class="terminal-1216688286-r7" x="24.4" y="508" textLength="12.2" clip-path="url(#terminal-1216688286-line-20)">│</text><text class="terminal-1216688286-r8" x="61" y="508" textLength="585.6" clip-path="url(#terminal-1216688286-line-20)">COMMAND&#160;DECK&#160;&#160;↑↓&#160;选择&#160;·&#160;Tab&#160;补全&#160;·&#160;Enter&#160;执行&#160;·&#160;Esc&#160;关闭</text><text class="terminal-1216688286-r7" x="1427.4" y="508" textLength="12.2" clip-path="url(#terminal-1216688286-line-20)">│</text><text class="terminal-1216688286-r1" x="1464" y="508" textLength="12.2" clip-path="url(#terminal-1216688286-line-20)">
</text><text class="terminal-1216688286-r7" x="24.4" y="532.4" textLength="12.2" clip-path="url(#terminal-1216688286-line-21)">│</text><text class="terminal-1216688286-r10" x="61" y="532.4" textLength="24.4" clip-path="url(#terminal-1216688286-line-21)">▌&#160;</text><text class="terminal-1216688286-r10" x="85.4" y="532.4" textLength="61" clip-path="url(#terminal-1216688286-line-21)">/fork</text><text class="terminal-1216688286-r10" x="146.4" y="532.4" textLength="97.6" clip-path="url(#terminal-1216688286-line-21)">&#160;[title]</text><text class="terminal-1216688286-r10" x="244" y="532.4" textLength="146.4" clip-path="url(#terminal-1216688286-line-21)">&#160;&#160;复制当前会话为新分支</text><text class="terminal-1216688286-r10" x="512.4" y="532.4" textLength="134.2" clip-path="url(#terminal-1216688286-line-21)">&#160;&#160;[会话&#160;·&#160;内置]</text><text class="terminal-1216688286-r7" x="1427.4" y="532.4" textLength="12.2" clip-path="url(#terminal-1216688286-line-21)">│</text><text class="terminal-1216688286-r1" x="1464" y="532.4" textLength="12.2" clip-path="url(#terminal-1216688286-line-21)">
</text><text class="terminal-1216688286-r7" x="24.4" y="556.8" textLength="12.2" clip-path="url(#terminal-1216688286-line-22)">│</text><text class="terminal-1216688286-r11" x="85.4" y="556.8" textLength="61" clip-path="url(#terminal-1216688286-line-22)">/help</text><text class="terminal-1216688286-r4" x="146.4" y="556.8" textLength="146.4" clip-path="url(#terminal-1216688286-line-22)">&#160;&#160;显示命令和快捷键帮助</text><text class="terminal-1216688286-r8" x="414.8" y="556.8" textLength="134.2" clip-path="url(#terminal-1216688286-line-22)">&#160;&#160;[系统&#160;·&#160;内置]</text><text class="terminal-1216688286-r7" x="1427.4" y="556.8" textLength="12.2" clip-path="url(#terminal-1216688286-line-22)">│</text><text class="terminal-1216688286-r1" x="1464" y="556.8" textLength="12.2" clip-path="url(#terminal-1216688286-line-22)">
</text><text class="terminal-1216688286-r7" x="24.4" y="581.2" textLength="12.2" clip-path="url(#terminal-1216688286-line-23)">│</text><text class="terminal-1216688286-r11" x="85.4" y="581.2" textLength="48.8" clip-path="url(#terminal-1216688286-line-23)">/new</text><text class="terminal-1216688286-r8" x="134.2" y="581.2" textLength="97.6" clip-path="url(#terminal-1216688286-line-23)">&#160;[title]</text><text class="terminal-1216688286-r4" x="231.8" y="581.2" textLength="85.4" clip-path="url(#terminal-1216688286-line-23)">&#160;&#160;开始新会话</text><text class="terminal-1216688286-r8" x="378.2" y="581.2" textLength="134.2" clip-path="url(#terminal-1216688286-line-23)">&#160;&#160;[会话&#160;·&#160;内置]</text><text class="terminal-1216688286-r7" x="1427.4" y="581.2" textLength="12.2" clip-path="url(#terminal-1216688286-line-23)">│</text><text class="terminal-1216688286-r1" x="1464" y="581.2" textLength="12.2" clip-path="url(#terminal-1216688286-line-23)">
</text><text class="terminal-1216688286-r7" x="24.4" y="605.6" textLength="12.2" clip-path="url(#terminal-1216688286-line-24)">│</text><text class="terminal-1216688286-r11" x="85.4" y="605.6" textLength="85.4" clip-path="url(#terminal-1216688286-line-24)">/rename</text><text class="terminal-1216688286-r8" x="170.8" y="605.6" textLength="97.6" clip-path="url(#terminal-1216688286-line-24)">&#160;&lt;title&gt;</text><text class="terminal-1216688286-r4" x="268.4" y="605.6" textLength="109.8" clip-path="url(#terminal-1216688286-line-24)">&#160;&#160;重命名当前会话</text><text class="terminal-1216688286-r8" x="463.6" y="605.6" textLength="134.2" clip-path="url(#terminal-1216688286-line-24)">&#160;&#160;[会话&#160;·&#160;内置]</text><text class="terminal-1216688286-r7" x="1427.4" y="605.6" textLength="12.2" clip-path="url(#terminal-1216688286-line-24)">│</text><text class="terminal-1216688286-r1" x="1464" y="605.6" textLength="12.2" clip-path="url(#terminal-1216688286-line-24)">
</text><text class="terminal-1216688286-r7" x="24.4" y="630" textLength="12.2" clip-path="url(#terminal-1216688286-line-25)">│</text><text class="terminal-1216688286-r11" x="85.4" y="630" textLength="85.4" clip-path="url(#terminal-1216688286-line-25)">/resume</text><text class="terminal-1216688286-r8" x="170.8" y="630" textLength="158.6" clip-path="url(#terminal-1216688286-line-25)">&#160;[session_id]</text><text class="terminal-1216688286-r4" x="329.4" y="630" textLength="97.6" clip-path="url(#terminal-1216688286-line-25)">&#160;&#160;恢复历史会话</text><text class="terminal-1216688286-r8" x="500.2" y="630" textLength="134.2" clip-path="url(#terminal-1216688286-line-25)">&#160;&#160;[会话&#160;·&#160;内置]</text><text class="terminal-1216688286-r7" x="1427.4" y="630" textLength="12.2" clip-path="url(#terminal-1216688286-line-25)">│</text><text class="terminal-1216688286-r1" x="1464" y="630" textLength="12.2" clip-path="url(#terminal-1216688286-line-25)">
</text><text class="terminal-1216688286-r7" x="24.4" y="654.4" textLength="12.2" clip-path="url(#terminal-1216688286-line-26)">│</text><text class="terminal-1216688286-r11" x="85.4" y="654.4" textLength="97.6" clip-path="url(#terminal-1216688286-line-26)">/session</text><text class="terminal-1216688286-r8" x="183" y="654.4" textLength="158.6" clip-path="url(#terminal-1216688286-line-26)">&#160;&lt;session_id&gt;</text><text class="terminal-1216688286-r4" x="341.6" y="654.4" textLength="122" clip-path="url(#terminal-1216688286-line-26)">&#160;&#160;查看一个会话摘要</text><text class="terminal-1216688286-r8" x="561.2" y="654.4" textLength="134.2" clip-path="url(#terminal-1216688286-line-26)">&#160;&#160;[会话&#160;·&#160;内置]</text><text class="terminal-1216688286-r7" x="1427.4" y="654.4" textLength="12.2" clip-path="url(#terminal-1216688286-line-26)">│</text><text class="terminal-1216688286-r1" x="1464" y="654.4" textLength="12.2" clip-path="url(#terminal-1216688286-line-26)">
</text><text class="terminal-1216688286-r7" x="24.4" y="678.8" textLength="12.2" clip-path="url(#terminal-1216688286-line-27)">│</text><text class="terminal-1216688286-r11" x="85.4" y="678.8" textLength="109.8" clip-path="url(#terminal-1216688286-line-27)">/sessions</text><text class="terminal-1216688286-r4" x="195.2" y="678.8" textLength="122" clip-path="url(#terminal-1216688286-line-27)">&#160;&#160;列出已保存的会话</text><text class="terminal-1216688286-r8" x="414.8" y="678.8" textLength="134.2" clip-path="url(#terminal-1216688286-line-27)">&#160;&#160;[会话&#160;·&#160;内置]</text><text class="terminal-1216688286-r7" x="1427.4" y="678.8" textLength="12.2" clip-path="url(#terminal-1216688286-line-27)">│</text><text class="terminal-1216688286-r1" x="1464" y="678.8" textLength="12.2" clip-path="url(#terminal-1216688286-line-27)">
</text><text class="terminal-1216688286-r7" x="24.4" y="703.2" textLength="12.2" clip-path="url(#terminal-1216688286-line-28)">│</text><text class="terminal-1216688286-r7" x="1427.4" y="703.2" textLength="12.2" clip-path="url(#terminal-1216688286-line-28)">│</text><text class="terminal-1216688286-r1" x="1464" y="703.2" textLength="12.2" clip-path="url(#terminal-1216688286-line-28)">
</text><text class="terminal-1216688286-r7" x="24.4" y="727.6" textLength="12.2" clip-path="url(#terminal-1216688286-line-29)">└</text><text class="terminal-1216688286-r7" x="36.6" y="727.6" textLength="1390.8" clip-path="url(#terminal-1216688286-line-29)">──────────────────────────────────────────────────────────────────────────────────────────────────────────────────</text><text class="terminal-1216688286-r7" x="1427.4" y="727.6" textLength="12.2" clip-path="url(#terminal-1216688286-line-29)">┘</text><text class="terminal-1216688286-r1" x="1464" y="727.6" textLength="12.2" clip-path="url(#terminal-1216688286-line-29)">
</text><text class="terminal-1216688286-r12" x="36.6" y="752" textLength="1390.8" clip-path="url(#terminal-1216688286-line-30)">idle&#160;·&#160;command&#160;palette&#160;&#160;&#160;&#160;&#160;&#160;&#160;&#160;&#160;&#160;&#160;&#160;&#160;&#160;&#160;&#160;&#160;&#160;&#160;&#160;&#160;&#160;&#160;&#160;&#160;&#160;&#160;&#160;&#160;&#160;&#160;&#160;&#160;&#160;&#160;&#160;&#160;&#160;&#160;&#160;&#160;&#160;&#160;&#160;&#160;&#160;&#160;&#160;&#160;&#160;&#160;&#160;&#160;&#160;&#160;&#160;&#160;&#160;&#160;&#160;&#160;&#160;&#160;&#160;&#160;&#160;&#160;&#160;&#160;&#160;&#160;&#160;&#160;&#160;&#160;&#160;&#160;&#160;0.0s&#160;·&#160;0&#160;tools</text><text class="terminal-1216688286-r1" x="1464" y="752" textLength="12.2" clip-path="url(#terminal-1216688286-line-30)">
</text><text class="terminal-1216688286-r7" x="24.4" y="776.4" textLength="12.2" clip-path="url(#terminal-1216688286-line-31)">┌</text><text class="terminal-1216688286-r7" x="36.6" y="776.4" textLength="1390.8" clip-path="url(#terminal-1216688286-line-31)">──────────────────────────────────────────────────────────────────────────────────────────────────────────────────</text><text class="terminal-1216688286-r7" x="1427.4" y="776.4" textLength="12.2" clip-path="url(#terminal-1216688286-line-31)">┐</text><text class="terminal-1216688286-r1" x="1464" y="776.4" textLength="12.2" clip-path="url(#terminal-1216688286-line-31)">
</text><text class="terminal-1216688286-r7" x="24.4" y="800.8" textLength="12.2" clip-path="url(#terminal-1216688286-line-32)">│</text><text class="terminal-1216688286-r4" x="61" y="800.8" textLength="24.4" clip-path="url(#terminal-1216688286-line-32)">/&#160;</text><text class="terminal-1216688286-r7" x="1427.4" y="800.8" textLength="12.2" clip-path="url(#terminal-1216688286-line-32)">│</text><text class="terminal-1216688286-r1" x="1464" y="800.8" textLength="12.2" clip-path="url(#terminal-1216688286-line-32)">
</text><text class="terminal-1216688286-r7" x="24.4" y="825.2" textLength="12.2" clip-path="url(#terminal-1216688286-line-33)">│</text><text class="terminal-1216688286-r7" x="1427.4" y="825.2" textLength="12.2" clip-path="url(#terminal-1216688286-line-33)">│</text><text class="terminal-1216688286-r1" x="1464" y="825.2" textLength="12.2" clip-path="url(#terminal-1216688286-line-33)">
</text><text class="terminal-1216688286-r7" x="24.4" y="849.6" textLength="12.2" clip-path="url(#terminal-1216688286-line-34)">│</text><text class="terminal-1216688286-r7" x="1427.4" y="849.6" textLength="12.2" clip-path="url(#terminal-1216688286-line-34)">│</text><text class="terminal-1216688286-r1" x="1464" y="849.6" textLength="12.2" clip-path="url(#terminal-1216688286-line-34)">
</text><text class="terminal-1216688286-r7" x="24.4" y="874" textLength="12.2" clip-path="url(#terminal-1216688286-line-35)">└</text><text class="terminal-1216688286-r7" x="36.6" y="874" textLength="1390.8" clip-path="url(#terminal-1216688286-line-35)">──────────────────────────────────────────────────────────────────────────────────────────────────────────────────</text><text class="terminal-1216688286-r7" x="1427.4" y="874" textLength="12.2" clip-path="url(#terminal-1216688286-line-35)">┘</text><text class="terminal-1216688286-r1" x="1464" y="874" textLength="12.2" clip-path="url(#terminal-1216688286-line-35)">
</text><text class="terminal-1216688286-r1" x="1464" y="898.4" textLength="12.2" clip-path="url(#terminal-1216688286-line-36)">
</text><text class="terminal-1216688286-r8" x="36.6" y="922.8" textLength="1110.2" clip-path="url(#terminal-1216688286-line-37)">/help&#160;命令&#160;·&#160;/keys&#160;快捷键&#160;·&#160;Ctrl+R&#160;历史&#160;·&#160;Ctrl+Shift+C&#160;复制&#160;·&#160;Alt+P&#160;模型&#160;&#160;|&#160;&#160;Context&#160;未观测&#160;&#160;|&#160;&#160;Token&#160;未观测</text>
    </g>
    </g>
</svg>
